<?xml version="1.0" standalone="no"?>
<!DOCTYPE svg PUBLIC "-//W3C//DTD SVG 1.1//EN" "http://www.w3.org/Graphics/SVG/1.1/DTD/svg11.dtd">
<svg xmlns="http://www.w3.org/2000/svg">
<metadata>Copyright (c) 2011 by Just Be Nice studio. All rights reserved.</metadata>
<defs>
<font id="websymbols" horiz-adv-x="1000" >
<font-face font-family="Font Awesome" font-weight="400" font-stretch="normal" units-per-em="1000" ascent="850" descent="-150" />
<missing-glyph horiz-adv-x="1000" />
<glyph glyph-name="search" unicode="&#x1f50d;" d="M746 209l254-255-105-105-254 254q-106-72-232-72-169 0-289 120t-120 289 120 289 289 120 289-120 120-289q0-127-72-231z m-65 231q0 113-80 193t-193 80-193-80-80-193 80-193 193-80 193 80 80 193z" horiz-adv-x="1000" />
<glyph glyph-name="mail" unicode="&#x2709;" d="M105 845h1152q43 0 74-31t31-74v-785q0-44-31-75t-74-31h-1152q-43 0-74 31t-31 75v785q0 43 31 74t74 31z m69-157l507-423 507 423h-1014z m-17-681h1048v558l-494-412h-61l-493 412v-558z" horiz-adv-x="1360" />
<glyph glyph-name="heart" unicode="&#x2665;" d="M775 849q126 0 207-80t81-207v-60q0-285-532-653-531 367-531 653v60q0 127 81 207t207 80q81 0 134-31t110-99q58 68 111 99t133 31z" horiz-adv-x="1063" />
<glyph glyph-name="heart-empty" unicode="&#x2661;" d="M1063 562v-60q0-285-532-653-531 367-531 653v60q0 127 81 207t207 80q81 0 134-31t110-99q58 68 111 99t133 31q126 0 207-80t81-207z m-117-55v50q0 58-39 114t-95 62q-12 2-37 2-53 0-83-20t-72-69l-89-105-89 105q-42 49-72 69t-83 20q-24 0-37-2-56-6-94-60t-41-115v-50q0-30 17-75 68-199 398-441 329 239 399 441 16 50 16 75z" horiz-adv-x="1063" />
<glyph glyph-name="star" unicode="&#x2605;" d="M1050 464q0-15-29-38l-275-200 105-323q5-17 5-30 0-24-18-24-17 0-38 17l-275 199-275-199q-23-17-39-17-18 0-18 23 0 11 6 31l105 323-275 200q-29 21-29 37 0 23 49 23l340-1 104 324q12 40 32 40 19 0 31-40l106-324 339 1q49 0 49-22z" horiz-adv-x="1050" />
<glyph glyph-name="user" unicode="&#x1f464;" d="M1070-88q0-21-2-63h-1067q0 10-1 31t-1 32q0 30 1 37 12 49 64 85t112 53 126 47 97 66q17 22 17 38 0 22-11 73-4 21-11 37t-16 33-16 32q-15 35-33 132-6 38-6 75 0 105 54 168t158 63 158-63 54-168q0-31-7-75-14-89-32-132-6-14-16-32t-16-33-11-37q-11-51-11-73 0-18 17-38 31-36 97-66t125-47 111-53 64-85q2-8 2-37z" horiz-adv-x="1070" />
<glyph glyph-name="video" unicode="&#x1f3ac;" d="M1360 849v-1000h-1360v1000h1360z m-200-160h120v80h-120v-80z m-200 0h120v80h-120v-80z m-240 0h120v80h-120v-80z m240-600h320v520h-320v-520z m-440 600h120v80h-120v-80z m640-760h120v80h-120v-80z m-880 760h120v80h-120v-80z m240-600h320v520h-320v-520z m440-160h120v80h-120v-80z m-880 760h120v80h-120v-80z m640-760h120v80h-120v-80z m-640 160h320v520h-320v-520z m440-160h120v80h-120v-80z m-240 0h120v80h-120v-80z m-200 0h120v80h-120v-80z" horiz-adv-x="1360" />
<glyph glyph-name="picture" unicode="&#x1f304;" d="M1360 849v-1000h-1360v1000h1360z m-1240-880h1120v760h-1120v-760z m1000 560q0-33-24-57t-57-24-57 24-24 57 24 57 57 24 57-24 24-57z m43-473q2-1 1-4t-4-3h-956q-4 0-4 4v2q18 36 135 280t144 299q1 2 4 3t4-2l311-386 152 122h7l1-2q39-50 102-155t105-158z" horiz-adv-x="1360" />
<glyph glyph-name="th-large" unicode="&#xe708;" d="M1000 850v-440h-440v440h440z m-320-320h200v200h-200v-200z m-240 320v-440h-440v440h440z m-320-320h200v200h-200v-200z m880-240v-440h-440v440h440z m-320-320h200v200h-200v-200z m-240 320v-440h-440v440h440z m-320-320h200v200h-200v-200z" horiz-adv-x="1000" />
<glyph glyph-name="th" unicode="&#x268f;" d="M1000 850v-160h-440v160h440z m0-280v-160h-440v160h440z m0-280v-160h-440v160h440z m-560 560v-440h-440v440h440z m-320-320h200v200h-200v-200z m880-520v-160h-440v160h440z m-560 280v-440h-440v440h440z m-320-320h200v200h-200v-200z" horiz-adv-x="1000" />
<glyph glyph-name="th-list" unicode="&#x2630;" d="M1000 850v-160h-1000v160h1000z m0-280v-160h-1000v160h1000z m0-280v-160h-1000v160h1000z m0-280v-160h-1000v160h1000z" horiz-adv-x="1000" />
<glyph glyph-name="ok" unicode="&#x2713;" d="M1179 778q-250-222-600-750l-115-179q-144 180-464 500l107 107 286-250q150 150 279 272t206 188 132 111 77 59l21 14q4 0 11-2t26-20 35-50z" horiz-adv-x="1179" />
<glyph glyph-name="ok-circle" unicode="&#x2714;" d="M500 850q136 0 251-67t182-182 67-251-67-251-182-182-251-67-251 67-182 182-67 251 67 251 182 182 251 67z m-240-447l-54-53q71-71 129-134t81-90l22-26q8 13 22 36t57 86 84 119 95 120 99 104q-18 35-36 35-10-6-32-22t-114-98-211-201z" horiz-adv-x="1000" />
<glyph glyph-name="cancel" unicode="&#x2715;" d="M654 349l346-346-154-154-346 346-346-346-154 154 346 346-346 346 154 154 346-346 346 346 154-154z" horiz-adv-x="1000" />
<glyph glyph-name="cancel-circle" unicode="&#x2716;" d="M1000 349q0-136-67-251t-182-182-251-67-251 67-182 182-67 251 67 251 182 182 251 67 251-67 182-182 67-251z m-339-232l71 71-161 161 161 161-71 71-161-161-161 161-71-71 161-161-161-161 71-71 161 161z" horiz-adv-x="1000" />
<glyph glyph-name="plus-circle" unicode="&#x2795;" d="M1000 349q0-136-67-251t-182-182-251-67-251 67-182 182-67 251 67 251 182 182 251 67 251-67 182-182 67-251z m-440-58h235v118h-235v235h-118v-235h-236v-118h236v-236h118v236z" horiz-adv-x="1000" />
<glyph glyph-name="minus-circle" unicode="&#x2796;" d="M1000 349q0-136-67-251t-182-182-251-67-251 67-182 182-67 251 67 251 182 182 251 67 251-67 182-182 67-251z m-794-58h589v118h-589v-118z" horiz-adv-x="1000" />
<glyph glyph-name="link" unicode="&#x1f517;" d="M1000 583q0-112-78-188l-175-176q-78-78-189-78-97 0-171 63l115 115q26-17 56-17 44 0 75 31l175 176q31 29 31 74 0 44-31 75t-75 31q-25 0-50-12t-33-34h-238l132 129q80 78 188 78 110 0 188-78t78-188z m-387-89l-115-115q-26 17-56 17-44 0-75-31l-175-176q-31-29-31-74 0-44 31-75t75-31q25 0 50 12t33 34h238l-132-129q-80-78-188-78-110 0-188 78t-78 188q0 112 78 188l175 176q78 78 189 78 97 0 171-63z" horiz-adv-x="1000" />
<glyph glyph-name="attach" unicode="&#x1f4ce;" d="M1113 556q0-67-27-130t-74-110l-448-444-62 61 448 444q74 72 74 178 0 89-59 148t-148 59q-102 0-180-75l-493-489q-59-59-59-133 0-57 37-94t94-37q75 0 134 59l377 372q53 55 53 97 0 21-16 33t-38 12q-48 0-86-40l-340-336-61 61 339 336q66 66 148 66 58 0 100-37t42-94q0-78-79-159l-377-372q-84-84-196-84-93 0-156 62t-63 155q0 110 84 194l493 489q104 101 242 101 125 0 210-84t85-209z" horiz-adv-x="1113" />
<glyph glyph-name="lock" unicode="&#x1f512;" d="M582 437v-356q0-32-32-32h-518q-32 0-32 32v356q0 10 3 17t7 10 12 5 13 2 16 0 15-1v127h1q9 87 74 141t153 54 151-63 71-152h1l2-107q4 0 15 1t15 0 13-2 12-5 7-10 3-17z m-161 162q0 51-37 74t-91 23q-53 0-92-26t-39-77v-124h259v129z" horiz-adv-x="582" />
<glyph glyph-name="lock-open" unicode="&#x1f513;" d="M582 437v-356q0-32-32-32h-518q-32 0-32 32v356q0 33 32 33h389v194q0 51-37 74t-91 23q-53 0-92-26t-39-77v-125h-97v128h1q9 87 74 141t153 54 151-63 71-151h1l2-172q4 0 15 1t15 0 13-2 12-5 7-10 3-17z" horiz-adv-x="582" />
<glyph glyph-name="tag" unicode="&#xe70c;" d="M1000 714v-270l-595-595-405 405 595 595h270z m-160-160q28 28 28 68t-28 68-68 28-68-28-28-68 28-68 68-28 68 28z" horiz-adv-x="1000" />
<glyph glyph-name="reply" unicode="&#xe712;" d="M501 850v-319q110-15 204-45t159-68 119-83 86-91 57-91 35-84 18-69 7-47l1-17q-6 11-19 30t-68 63-125 77-196 52q-77 12-162 12-55 0-115-5v-316l-501 499z" horiz-adv-x="1185" />
<glyph glyph-name="reply-all" unicode="&#xe713;" d="M501 850v-182l-319-319 319-318v-181l-501 499z m365 0v-319q110-15 204-45t159-68 119-83 86-91 57-91 35-84 18-69 8-47v-17q-6 11-19 30t-68 63-125 77q-71 32-197 52-77 12-161 12-55 0-115-5v-316l-501 499z" horiz-adv-x="1550" />
<glyph glyph-name="forward" unicode="&#x27a6;" d="M0 531h684v319l501-501-501-499v316h-684v365z" horiz-adv-x="1185" />
<glyph glyph-name="code" unicode="&#xe714;" d="M1000 849l500-500-500-500-154 154 346 346-346 346z m-692-500l346-346-154-154-500 500 500 500 154-154z" horiz-adv-x="1500" />
<glyph glyph-name="retweet" unicode="&#xe717;" d="M1120 369h240l-300-320-300 320h240v240h-400l-117 120h636z m-360-200l117-120h-636l-1 360h-240l300 320 300-320h-240v-240h400z" horiz-adv-x="1360" />
<glyph glyph-name="comment" unicode="&#xe718;" d="M1137 749v-532q0-41-30-71t-71-30h-168v-268l-267 268h-502q-41 0-71 30t-30 71v532q0 41 30 71t71 30h937q41 0 71-30t30-71z" horiz-adv-x="1137" />
<glyph glyph-name="comment-alt" unicode="&#xe71a;" d="M1179 385q0-126-79-234t-215-170-296-62q-122 0-234 39l2-3-357-107q44 59 71 127t32 106l4 38q-106 120-106 266 0 126 79 233t215 169 296 62 296-62 215-169 79-233z" horiz-adv-x="1179" />
<glyph glyph-name="chat" unicode="&#xe720;" d="M1179 385q0-126-79-234t-215-170-296-62q-122 0-234 39l2-3-357-107q44 59 71 127t32 106l4 38q-106 120-106 266 0 126 79 233t215 169 296 62 296-62 215-169 79-233z m-250 0q0 29-21 50t-51 21q-29 0-50-21t-21-50q0-30 21-51t50-21q30 0 51 21t21 51z m-250 0q0 29-21 50t-51 21q-29 0-50-21t-21-50q0-30 21-51t50-21q30 0 51 21t21 51z m-250 0q0 29-21 50t-51 21q-29 0-50-21t-21-50q0-30 21-51t50-21q30 0 51 21t21 51z" horiz-adv-x="1179" />
<glyph glyph-name="attention" unicode="&#x26a0;" d="M1113-70q0-39-28-60t-68-21h-923q-40 0-68 21t-28 59q0 30 18 61l461 804q33 55 78 55t76-55l462-805q18-32 18-60z m-487 511v146h-139v-146q0-14 2-27t6-28 6-27l26-162h59l27 162q2 10 6 26t6 29 2 27z m0-387q0 29-21 49t-50 20q-28 0-49-20t-21-49 21-50 49-21q29 0 50 21t21 50z" horiz-adv-x="1113" />
<glyph glyph-name="location" unicode="&#xe724;" d="M586 556q0-7-2-21t-18-72-44-130-88-202-143-283q-82 153-143 282t-88 204-43 128-18 73l-2 20q0 121 86 207t207 86 207-86 86-207z m-207 0q0 36-25 61t-61 25-61-25-25-61 25-61 61-25 61 25 25 61z" horiz-adv-x="586" />
<glyph glyph-name="doc" unicode="&#xe730;" d="M560 849l200-200-1-800h-759v1000h560z m-400-840h440v560h-120v120h-320v-680z" horiz-adv-x="760" />
<glyph glyph-name="docs-landscape" unicode="&#xe737;" d="M987 552v-553h-987v750h789z m-829-395h671v316h-118v118h-553v-434z" horiz-adv-x="989" />
<glyph glyph-name="folder" unicode="&#x1f4c1;" d="M1313 632h-1235q9 48 27 67 16 17 31 17h4q4-1 8-1 12 0 26 4 18 6 25 29l24 72q77 29 208 29 89 0 164-29l25-72q24-23 33-26t44-3h485q84 0 110-22 12-11 22-65z m78-164v-10l-68-523q-5-35-34-61t-65-26h-1058q-36 0-66 26t-34 61l-67 523q-1 3-1 10 0 33 23 55t56 22h1235q33 0 56-22t23-55z" horiz-adv-x="1391" />
<glyph glyph-name="archive" unicode="&#xe738;" d="M1217 806v-131q0-18-13-31t-31-13h-1131q-17 0-30 13t-13 31v131q0 17 13 30t30 13h1131q18 0 31-13t13-30z m-43-305v-609q0-17-13-30t-31-13h-1043q-18 0-31 13t-13 30v609q0 18 13 31t31 13h1043q18 0 31-13t13-31z m-304-152q0 27-20 46t-47 19h-391q-27 0-46-19t-19-46 19-46 46-19h391q27 0 47 19t20 46z" horiz-adv-x="1217" />
<glyph glyph-name="rss" unicode="&#xe73a;" d="M1000-151h-193q0 164-64 314t-172 258-258 172-314 64v192q203 0 388-80t319-214 214-319 80-388z m-340 0h-192q0 194-137 331t-331 137v192q179 0 331-89t241-241 89-331z m-410 125q0-52-37-89t-89-37-89 37-37 89 37 89 89 37 89-37 37-89z" horiz-adv-x="1000" />
<glyph glyph-name="rss-alt" unicode="&#xe73b;" d="M1000 761v-824q0-36-26-62t-62-26h-824q-36 0-62 26t-26 62v824q0 36 26 62t62 26h824q36 0 62-26t26-62z m-283-765h136q0 143-56 274t-151 226-226 151-274 56v-135q154 0 286-77t208-208 77-287z m-240 0h136q0 126-63 234t-170 170-234 63v-135q136 0 233-97 97-95 97-234z m-153 88q0 37-26 63t-63 26q-36 0-62-26t-26-63q0-36 26-62t62-26q37 0 63 26t26 62z" horiz-adv-x="1000" />
<glyph glyph-name="cog" unicode="&#x2699;" d="M1000 421v-142l-185-26q-10-27-21-50l120-157-102-100-159 118q-20-10-51-21l-30-194h-143l-27 197q-21 7-43 18l-161-119-101 100 121 160q-11 21-19 46l-199 28v142l199 28q7 21 19 45l-120 159 101 100 160-119q15 8 47 20l28 195h143l28-195q22-7 48-19l158 117 102-100-119-156q13-27 20-48z m-348-72q0 60-43 102t-103 42-103-42-43-102 43-102 103-42 103 42 43 102z" horiz-adv-x="1000" />
<glyph glyph-name="logout" unicode="&#xe741;" d="M912 614l276-266-276-264v177h-413v176h413v177z m-166-512l106-107q-156-146-338-146-217 0-366 144t-149 359q0 135 68 250t184 182 251 67q184 0 349-148l-105-106q-114 104-243 104-149 0-252-104t-103-254q0-140 106-241t248-101q131 0 244 103z" horiz-adv-x="1188" />
<glyph glyph-name="clock" unicode="&#x1f554;" d="M1000 349q0-136-67-251t-182-182-251-67-251 67-182 182-67 251 67 251 182 182 251 67 251-67 182-182 67-251z m-117 0q0 158-113 271t-271 113q-126 0-226-74l2-2q-48-35-83-83l-2 2q-74-100-74-226 0-158 113-271t271-113q126 0 226 74l-2 2q48 35 83 83l2-2q74 100 74 226z m-203-200q0-25-18-43t-43-18q-26 0-42 18l-120 120q-18 18-18 62v320q0 25 18 43t43 18 43-18 18-43v-315l102-103q18-16 18-42z" horiz-adv-x="1000" />
<glyph glyph-name="block" unicode="&#x1f6ab;" d="M1000 349q0-136-67-251t-182-182-251-67-251 67-182 182-67 251 67 251 182 182 251 67 251-67 182-182 67-251z m-117 0q0 158-113 271t-271 113q-126 0-226-74l535-535q74 100 74 226z m-157-309l-535 535q-74-100-74-226 0-158 113-271t271-113q126 0 226 74z" horiz-adv-x="1000" />
<glyph glyph-name="resize-full" unicode="&#xe744;" d="M1000 849v-467l-168 161-161-161q-29-29-69-29t-69 29-29 69 29 69l161 161-161 168h467z m-694-832l161-168h-467v467l168-161 161 161q29 29 69 29t69-29 29-69-29-69z" horiz-adv-x="1000" />
<glyph glyph-name="resize-full-circle" unicode="&#xe7a6;" d="M1000 349q0-136-67-251t-182-182-251-67-251 67-182 182-67 251 67 251 182 182 251 67 251-67 182-182 67-251z m-356 82l116-102v280h-280l102-116-13-13-213-213-116 102v-280h280l-102 116z" horiz-adv-x="1000" />
<glyph glyph-name="popup" unicode="&#xe74c;" d="M1091 850v-636h-273v-364h-818v636h273v364h818z m-273-545h182v363h-636v-182h454v-181z m-727-364h636v364h-636v-364z" horiz-adv-x="1091" />
<glyph glyph-name="left-open" unicode="&#xe75d;" d="M308 349l346-346-154-154-500 500 500 500 154-154z" horiz-adv-x="654" />
<glyph glyph-name="right-open" unicode="&#xe75e;" d="M154 849l500-500-500-500-154 154 346 346-346 346z" horiz-adv-x="654" />
<glyph glyph-name="down-circle" unicode="&#xe4a4;" d="M1000 349q0-136-67-251t-182-182-251-67-251 67-182 182-67 251 67 251 182 182 251 67 251-67 182-182 67-251z m-500-186l232 233-71 71-161-161-161 161-71-71z" horiz-adv-x="1000" />
<glyph glyph-name="left-circle" unicode="&#xe4a1;" d="M1000 349q0-136-67-251t-182-182-251-67-251 67-182 182-67 251 67 251 182 182 251 67 251-67 182-182 67-251z m-453-232l71 71-161 161 161 161-71 71-233-232z" horiz-adv-x="1000" />
<glyph glyph-name="right-circle" unicode="&#xe4a2;" d="M1000 349q0-136-67-251t-182-182-251-67-251 67-182 182-67 251 67 251 182 182 251 67 251-67 182-182 67-251z m-547-232l233 232-233 232-71-71 161-161-161-161z" horiz-adv-x="1000" />
<glyph glyph-name="up-circle" unicode="&#xe4a3;" d="M1000 349q0-136-67-251t-182-182-251-67-251 67-182 182-67 251 67 251 182 182 251 67 251-67 182-182 67-251z m-339-118l71 71-232 233-232-233 71-71 161 161z" horiz-adv-x="1000" />
<glyph glyph-name="down-dir" unicode="&#x25be;" d="M265 84l-265 530h529z" horiz-adv-x="529" />
<glyph glyph-name="right-dir" unicode="&#x25b8;" d="M529 349l-529-265v530z" horiz-adv-x="529" />
<glyph glyph-name="down-micro" unicode="&#xe7a7;" d="M235 231l-235 236h471z" horiz-adv-x="471" />
<glyph glyph-name="up-micro" unicode="&#xe7a8;" d="M471 231h-471l235 236z" horiz-adv-x="471" />
<glyph glyph-name="cw-circle" unicode="&#xe7a9;" d="M1000 349q0-136-67-251t-182-182-251-67-251 67-182 182-67 251 67 251 182 182 251 67 251-67 182-182 67-251z m-260-80l180 180h-120q-30 92-119 153t-187 61q-131 0-224-93t-93-224 93-224 224-93 223 92l-62 71q-66-64-156-64-91 0-156 65t-65 156 65 156 156 65q95 0 156-64 8-8 12-17t7-21 6-19h-120z" horiz-adv-x="1000" />
<glyph glyph-name="arrows-cw" unicode="&#xe760;" d="M707 700l150 150v-405h-405l153 153q-77 62-176 62-111 0-194-76t-92-186h-143q9 170 133 287t295 117q157 0 278-102z m-278-660q111 0 193 76t91 186h143q-9-170-133-287t-294-117q-158 0-279 102l-150-150v405h405l-153-153q78-62 177-62z" horiz-adv-x="857" />
<glyph glyph-name="updown-circle" unicode="&#xe7aa;" d="M1000 350q0-136-67-251t-182-182-251-67-251 67-182 182-67 251 67 251 182 182 251 67 251-67 182-182 67-251z m-353-294l162 236h-103v293h-118v-293h-103z m-235 353h103l-162 265-162-265h103v-294h118v294z" horiz-adv-x="1000" />
<glyph glyph-name="target" unicode="&#x1f3af;" d="M1000 349q0-136-67-251t-182-182-251-67-251 67-182 182-67 251 67 251 182 182 251 67 251-67 182-182 67-251z m-152-59h-142v118h142q-19 110-99 190t-190 99v-142h-118v142q-110-19-190-99t-99-190h142v-118h-142q19-110 99-190t190-99v142h118v-142q110 19 190 99t99 190z" horiz-adv-x="1000" />
<glyph glyph-name="signal" unicode="&#x1f4f6;" d="M222-150h-222v333h222v-333z m371 0h-223v667h223v-667z m148 0v1000h222v-1000h-222z" horiz-adv-x="963" />
<glyph glyph-name="progress-0" unicode="&#x30;" d="M559 653h-118v265h118v-265z m0-735h-118v265h118v-265z m176 441v118h265v-118h-265z m-735 118h265v-118h-265v118z m292 66l-187 187 83 83 187-187z m520-520l-187 187 83 83 187-187z m-624 0l-83 83 187 187 83-83z" horiz-adv-x="1000" />
<glyph glyph-name="progress-1" unicode="&#x31;" d="M559 653h-118v265h118v-265z m0-735h-118v265h118v-265z m-559 559h265v-118h-265v118z m292 66l-187 187 83 83 187-187z m520-520l-187 187 83 83 187-187z m0 790l83-83-187-187-83 83z m-624-790l-83 83 187 187 83-83z" horiz-adv-x="1000" />
<glyph glyph-name="progress-2" unicode="&#x32;" d="M559 653h-118v265h118v-265z m0-735h-118v265h118v-265z m176 441v118h265v-118h-265z m-735 118h265v-118h-265v118z m292 66l-187 187 83 83 187-187z m520 270l83-83-187-187-83 83z m-624-790l-83 83 187 187 83-83z" horiz-adv-x="1000" />
<glyph glyph-name="progress-3" unicode="&#x33;" d="M559 653h-118v265h118v-265z m176-294v118h265v-118h-265z m-735 118h265v-118h-265v118z m292 66l-187 187 83 83 187-187z m520-520l-187 187 83 83 187-187z m0 790l83-83-187-187-83 83z m-624-790l-83 83 187 187 83-83z" horiz-adv-x="1000" />
<glyph glyph-name="progress-4" unicode="&#x34;" d="M559 653h-118v265h118v-265z m0-735h-118v265h118v-265z m176 441v118h265v-118h-265z m-735 118h265v-118h-265v118z m292 66l-187 187 83 83 187-187z m520-520l-187 187 83 83 187-187z m0 790l83-83-187-187-83 83z" horiz-adv-x="1000" />
<glyph glyph-name="progress-5" unicode="&#x35;" d="M559 653h-118v265h118v-265z m0-735h-118v265h118v-265z m176 441v118h265v-118h-265z m-443 184l-187 187 83 83 187-187z m520-520l-187 187 83 83 187-187z m0 790l83-83-187-187-83 83z m-624-790l-83 83 187 187 83-83z" horiz-adv-x="1000" />
<glyph glyph-name="progress-6" unicode="&#x36;" d="M559 653h-118v265h118v-265z m0-735h-118v265h118v-265z m176 441v118h265v-118h-265z m-735 118h265v-118h-265v118z m812-454l-187 187 83 83 187-187z m0 790l83-83-187-187-83 83z m-624-790l-83 83 187 187 83-83z" horiz-adv-x="1000" />
<glyph glyph-name="progress-7" unicode="&#x37;" d="M559-82h-118v265h118v-265z m176 441v118h265v-118h-265z m-735 118h265v-118h-265v118z m292 66l-187 187 83 83 187-187z m520-520l-187 187 83 83 187-187z m0 790l83-83-187-187-83 83z m-624-790l-83 83 187 187 83-83z" horiz-adv-x="1000" />
<glyph glyph-name="font" unicode="&#xe779;" d="M925-124h-264q-15 40-18 92-120-119-306-119-95 0-169 29t-121 95-47 162q0 40 9 74t21 60 36 48 43 37 54 28 58 21 64 15 64 11 66 9q50 6 100 15 24 4 37 7t34 11 32 17 20 26 9 39q0 126-170 126-87 0-131-32t-57-114h-244q6 90 44 154t101 99 135 51 159 16q68 0 125-8t112-29 93-55 61-89 23-129v-408q0-64 1-91t9-78 24-89z m-284 354v106q-33-19-87-31t-101-19-91-20-70-43-26-79q0-62 40-95t103-33q103 0 167 55t64 156z" horiz-adv-x="925" />
<glyph glyph-name="list" unicode="&#xe782;" d="M1000 732v-213h-669v213h669z m0-334v-213h-669v213h669z m-761 228q0-31-23-54t-54-23-54 23-23 54 23 54 54 23 54-23 23-54z m761-563v-213h-669v213h669z m-761 228q0-32-23-54t-54-22-54 22-23 54 23 54 54 22 54-22 23-54z m0-335q0-31-23-54t-54-23-54 23-23 54q0 32 23 55t54 23 54-23 23-55z" horiz-adv-x="1000" />
<glyph glyph-name="list-numbered" unicode="&#xe7ad;" d="M1000 732v-213h-669v213h669z m0-334v-213h-669v213h669z m-804 313v-192h-42v125h-46v29q49 0 56 38h32z m804-648v-213h-669v213h669z m-768 161v-33h-141q1 28 17 49t35 30 34 24 16 30q0 12-8 20t-21 8q-29 0-31-41h-37q0 34 18 55t52 21q28 0 47-16t19-43q0-25-17-41t-40-31-34-30h91z m1-303q0-29-21-46t-50-17q-32 0-52 18t-20 49v3h38q0-37 32-37 14 0 23 8t9 22-10 22-25 7h-9v27h6q34 0 34 24 0 11-8 18t-20 7q-29 0-29-33h-37q1 30 19 47t48 17q26 0 45-14t19-39q0-13-8-24t-20-14q34-8 34-44z" horiz-adv-x="1000" />
<glyph glyph-name="indent-left" unicode="&#xe783;" d="M1000 732v-213h-669v213h669z m0-334v-213h-669v213h669z m0-335v-213h-669v213h669z m-761 335v-213l-150 106z" horiz-adv-x="1000" />
<glyph glyph-name="indent-right" unicode="&#xe784;" d="M1000 732v-213h-669v213h669z m0-334v-213h-669v213h669z m0-335v-213h-669v213h669z m-911 335l150-107-150-106v213z" horiz-adv-x="1000" />
<glyph glyph-name="cloud" unicode="&#x2601;" d="M1435 132q0-111-76-193t-186-90v-1h-870v1q-7-1-21-1-117 0-200 83t-83 200q0 74 37 139t101 103q-8 32-8 62 0 117 83 200t200 83q103 0 186-70 43 91 129 146t186 55q144 0 246-102t102-246q0-55-16-103 85-29 138-103t53-163z" horiz-adv-x="1435" />
<glyph glyph-name="terminal" unicode="&#xe7ac;" d="M1360 849v-1000h-1360v1000h1360z m-838-600h318v77h-318v-77z m-362 77l317 135v96l-317 134v-99l209-84-209-83v-99z" horiz-adv-x="1360" />
<glyph glyph-name="facebook-rect" unicode="&#xf301;" d="M1000 761v-824q0-36-26-62t-62-26h-824q-36 0-62 26t-26 62v824q0 36 26 62t62 26h824q36 0 62-26t26-62z m-187-160l20 118q-43 15-143 15-79 0-123-58-26-34-26-119v-78h-79v-115h79v-400h149v400h118l9 115h-127v90q0 42 59 42 31 0 64-10z" horiz-adv-x="1000" />
<glyph glyph-name="twitter-bird" unicode="&#xf303;" d="M1003 349q-41-46-114-46h-6q-37-152-178-244t-305-92q-121 0-226 53t-176 151q75-72 181-72 113 0 191 83-6-1-12-1l-36 8q-24 12-24 35 0 27 41 45-10-1-19-1-29 0-54 12-33 16-51 51 22 25 69 28-98 24-112 102 27 8 53 8h8q-37 20-62 52t-24 70l1 8q155-59 257-116 30-17 76-63 32 87 68 151t90 99q-1-16-15-31 33 32 78 38-3-23-53-41 7 2 26 10t33 12 26 4q15 0 15-11 0-8-17-16t-43-16-28-9q10 1 19 1 69 0 123-52 60-60 76-143 18-6 36-6 50 0 83 19-13-30-44-47t-67-19q34-15 83-15 16 0 31 3z" horiz-adv-x="1003" />
<glyph glyph-name="vimeo-rect" unicode="&#xf30e;" d="M1000 761v-824q0-36-26-62t-62-26h-824q-36 0-62 26t-26 62v824q0 36 26 62t62 26h824q36 0 62-26t26-62z m-120-165q0 93-112 93-74 0-139-53t-89-126q12 2 23 2 8 0 15-1 18-2 32-7t22-20 8-39q0-43-38-119t-75-76q-19 0-36 19-24 25-38 95t-20 135-31 117-70 52q-37 0-80-26t-105-81-68-59v-5q5-5 11-15t12-14 19-5q11 0 33 7t34 7q26 0 43-40 5-13 13-38t11-33q14-40 37-130l7-26 8-32t10-33 13-35 14-32 18-30 21-22 25-17 29-5q67 0 145 65t139 156 105 183 56 150q3 18 3 34z" horiz-adv-x="1000" />
<glyph glyph-name="tumblr-rect" unicode="&#xf310;" d="M1000 761v-824q0-36-26-62t-62-26h-824q-36 0-62 26t-26 62v824q0 36 26 62t62 26h824q36 0 62-26t26-62z m-456-364h183l-1 119h-184l2 181h-112q-3-68-37-118-3-5-9-16t-12-19-11-12q-19-15-76-15h-15v-120l91-3v-303q0-39 15-65t41-38 50-15 56-4h45q50 0 81 4t43 8 27 12v128q-54-35-105-35-27 0-49 13t-22 25v273z" horiz-adv-x="1000" />
<glyph glyph-name="googleplus-rect" unicode="&#xf309;" d="M1000 761v-824q0-36-26-62t-62-26h-824q-36 0-62 26t-26 62v824q0 36 26 62t62 26h824q36 0 62-26t26-62z m-237-239h121v60h-121v122h-60v-122h-122v-60h122v-121h60v121z m-215 163q0 11-22 11-3 1-52 1h-72q-24 0-61-4t-59-11q-58-19-93-62t-35-102q0-70 44-113 43-42 111-42h9q0-24 2-35t5-12 8-5 9-15q-55 0-103-12t-86-48-38-91q0-77 62-115t144-38q92 0 160 46t68 134q0 38-20 73t-44 55-44 39-20 29q0 11 15 26t34 29 34 47 15 74q0 76-44 107 1 0 16 2t21 3 17 5 16 10 5 16z m-135-170q0-35-16-60t-49-25q-43 0-69 46t-26 92q0 35 16 60t49 25q43 0 69-46t26-92z m55-345q0-44-43-71t-90-27-86 24-39 68q0 48 41 72t92 24q46 0 85-24t39-67z" horiz-adv-x="1000" />
<glyph glyph-name="linkedin-rect" unicode="&#xf312;" d="M1000 761v-824q0-36-26-62t-62-26h-824q-36 0-62 26t-26 62v824q0 36 26 62t62 26h824q36 0 62-26t26-62z m-332-712h129v247q0 89-41 135t-107 46q-47 0-80-21t-49-47h-2l-6 59h-111q3-114 3-134v-285h128v241q0 21 4 33 20 49 66 49 65 0 65-91v-232z m-355 582q-19 19-49 19t-49-19-19-47 19-47 48-19q32 0 51 18 18 18 18 44 0 31-19 50z m-114-582h128v419h-128v-419z" horiz-adv-x="1000" />
<glyph glyph-name="skype" unicode="&#xf30b;" d="M1000 122q0-113-82-193t-196-80q-69 0-130 32-46-8-88-8-196 0-337 138t-141 334q0 42 10 94-38 64-38 138 0 113 82 193t196 80q81 0 147-42 38 7 81 7 129 0 239-63t174-171 65-237q0-56-11-101 29-58 29-121z m-217 102q0 50-22 87t-58 57-79 34-86 23-79 18-58 26-22 39q0 34 37 50t76 16q40 0 67-13t39-30 22-35 25-30 41-13q28 0 49 19t21 46-15 54q-30 55-97 80t-141 25q-46 0-90-9t-85-29-66-57-25-87q0-66 41-107t99-57 117-29 99-34 41-59q0-42-42-63t-90-21q-45 0-74 15t-42 36-23 43-26 37-42 15q-28 0-49-18t-21-45q0-42 31-85 72-104 249-104 50 0 97 11t89 34 68 64 26 95z" horiz-adv-x="1000" />
<glyph glyph-name="vkontakte-rect" unicode="&#xf30a;" d="M1000 761v-824q0-36-26-62t-62-26h-824q-36 0-62 26t-26 62v824q0 36 26 62t62 26h824q36 0 62-26t26-62z m-240-528q0 58-32 96t-91 50v3q39 16 61 51t22 78q0 46-20 76t-56 43-69 17-78 4h-219v-600h240q47 0 88 10t76 30 56 58 21 88z m-193 246q0-20-7-33t-16-20-26-10-28-4-31-1h-30v127h39q18 0 28-1t26-4 24-9 15-18 7-29z m38-243q0-12-3-23t-7-18-13-14-15-10-18-7-19-4-21-2-20-1h-61v150h77t23-1 25-4 19-8 18-13 10-20 5-28z" horiz-adv-x="1000" />
<glyph glyph-name="youtube" unicode="&#xf313;" d="M807 739v-313h-64v35q-37-39-74-39-45 0-45 56v261h64v-240q0-21 17-21t38 24v237h64z m-237-73v-162q0-42-25-64t-68-22q-41 0-67 24t-26 64v162q0 39 28 60t68 21q38 0 64-22t26-59z m-65-167v171q0 10-9 17t-19 7-18-7-8-17v-171q0-26 26-26 28 0 28 26z m-190 351h73l-55-165q-4-12-10-28t-11-28-8-28v-176h-72v168q-2 12-29 85l-57 171h73l46-169h5z m611-739q0-49-6-145-4-50-39-80t-85-32q-99-5-297-5-199 0-297 5-50 2-85 32t-39 80q-6 96-6 145t6 145q4 50 39 80t85 32q98 5 297 5t297-5q50-2 85-32t39-80q6-96 6-145z m-71-91v19h-53q0-2 1-13t0-16-3-12-7-10-14-3q-10 0-16 6t-6 12-1 17v48h98v64q0 35-19 55t-54 20q-34 0-57-21t-23-55v-113q0-36 20-58t56-22q77 0 77 79z m-191-19v140q0 63-50 63-25 0-46-23v110h-52v-343h52v20q22-23 49-23 47 0 47 56z m-250-53h51v253h-51v-192q-17-19-31-19-13 0-13 17v194h-52v-213q0-44 36-44 30 0 60 32v-28z m-156 293h61v50h-179v-50h60v-293h58v293z m544-105v-28h-45v28q0 27 23 27 22 0 22-27z m-191 3v-133q0-21-18-21-14 0-25 11v158q10 10 22 10 21 0 21-25z" horiz-adv-x="1000" />
<glyph glyph-name="odnoklassniki-rect" unicode="&#xf30d;" d="M1000 761v-824q0-36-26-62t-62-26h-824q-36 0-62 26t-26 62v824q0 36 26 62t62 26h824q36 0 62-26t26-62z m-295-216q0 87-59 150t-146 63-146-63-59-150 59-150 146-63 146 63 59 150z m22-279q0 26-18 45t-43 19q-15 0-28-8-70-36-140-36-69 0-138 36-16 7-28 7-25 0-43-19t-18-45q0-68 147-97l-117-121q-18-18-18-44t18-45 43-19 43 18l112 116 112-116q18-18 43-18t43 19 18 45-18 44l-117 121q147 30 147 98z m-142 279q0-36-25-62t-61-26-61 26-25 62 25 62 61 26 61-26 25-62z" horiz-adv-x="1000" />
</font>
</defs>
</svg>
