<svg height="1000px" width="965px" xmlns="http://www.w3.org/2000/svg">
  <g>
    <path d="M965 0c0 0 0 1000 0 1000c0 0 -965 0 -965 0c0 0 0 -1000 0 -1000c0 0 965 0 965 0c0 0 0 0 0 0m-127 131c0 0 52 0 52 0c0 0 0 -53 0 -53c0 0 -166 0 -166 0c0 0 0 53 0 53c0 0 51 0 51 0c0 0 0 187 0 187c0 0 63 0 63 0c0 0 0 -187 0 -187c0 0 0 0 0 0m-141 106c0 -18 -5.5 -32.333 -16.5 -43c-11 -10.667 -22.833 -17.5 -35.5 -20.5c-12.667 -3 -24.5 -6.833 -35.5 -11.5c-11 -4.667 -16.5 -10.667 -16.5 -18c0 -6.667 2.833 -11.667 8.5 -15c5.667 -3.333 11.833 -5 18.5 -5c15.333 0 29.333 5.333 42 16c0 0 25 -49 25 -49c-23.333 -13.333 -48.667 -20 -76 -20c-24 0 -43.833 7.5 -59.5 22.5c-15.667 15 -23.5 34.5 -23.5 58.5c0 19.333 5.333 34.333 16 45c10.667 10.667 22.5 17.167 35.5 19.5c13 2.333 24.833 5.833 35.5 10.5c10.667 4.667 16 11.333 16 20c0 8 -3 14.167 -9 18.5c-6 4.333 -13 6.5 -21 6.5c-16.667 0 -35.333 -8.333 -56 -25c0 0 -26 50 -26 50c24.667 18.667 52.667 28 84 28c28.667 0 51.5 -7.5 68.5 -22.5c17 -15 25.5 -36.833 25.5 -65.5c0 0 0 0 0 0m-213 -24c0 0 0 -135 0 -135c0 0 -63 0 -63 0c0 0 0 126 0 126c0 13.333 -0.667 24 -2 32c-1.333 8 -5.333 15.667 -12 23c-6.667 7.333 -16 11 -28 11c-18 0 -29.667 -5.833 -35 -17.5c-5.333 -11.667 -8 -27.833 -8 -48.5c0 0 0 -126 0 -126c0 0 -63 0 -63 0c0 0 0 135 0 135c0 38 8.167 66.167 24.5 84.5c16.333 18.333 43.5 27.5 81.5 27.5c37.333 0 64.167 -9.167 80.5 -27.5c16.333 -18.333 24.5 -46.5 24.5 -84.5c0 0 0 0 0 0m256 700c0 0 137 0 137 0c0 0 0 -53 0 -53c0 0 -75 0 -75 0c0 0 0 -41 0 -41c0 0 71 0 71 0c0 0 0 -53 0 -53c0 0 -71 0 -71 0c0 0 0 -41 0 -41c0 0 75 0 75 0c0 0 0 -53 0 -53c0 0 -137 0 -137 0c0 0 0 241 0 241c0 0 0 0 0 0m-518 -673c0 0 0 -162 0 -162c0 0 -136 0 -136 0c0 0 0 51 0 51c0 0 74 0 74 0c0 0 0 112 0 112c0 20.667 -6 31 -18 31c-7.333 0 -16.333 -6.333 -27 -19c0 0 -34 36 -34 36c15.333 24 36 36 62 36c25.333 0 44.833 -7.667 58.5 -23c13.667 -15.333 20.5 -36 20.5 -62c0 0 0 0 0 0m87 376c0 0 137 0 137 0c0 0 0 -53 0 -53c0 0 -74 0 -74 0c0 0 0 -42 0 -42c0 0 70 0 70 0c0 0 0 -53 0 -53c0 0 -70 0 -70 0c0 0 0 -40 0 -40c0 0 74 0 74 0c0 0 0 -53 0 -53c0 0 -137 0 -137 0c0 0 0 241 0 241c0 0 0 0 0 0m375 292c0 0 0 -75 0 -75c-14 17.333 -32 26 -54 26c-19.333 0 -35 -6.167 -47 -18.5c-12 -12.333 -18 -28.167 -18 -47.5c0 -18.667 6 -34.333 18 -47c12 -12.667 27.333 -19 46 -19c23.333 0 41.667 8.667 55 26c0 0 0 -75 0 -75c-20.667 -8 -39.667 -12 -57 -12c-35.333 0 -65.333 12.5 -90 37.5c-24.667 25 -37 54.833 -37 89.5c0 36 12.5 66 37.5 90c25 24 55.5 36 91.5 36c14.667 0 33 -3.667 55 -11c0 0 0 0 0 0m-414 -359c0 -36.667 -16.333 -57.333 -49 -62c18 -9.333 27 -25.667 27 -49c0 -42 -24 -63 -72 -63c0 0 -89 0 -89 0c0 0 0 241 0 241c0 0 96 0 96 0c24.667 0 45.333 -5.333 62 -16c16.667 -10.667 25 -27.667 25 -51c0 0 0 0 0 0m118 364c0 0 63 0 63 0c0 0 0 -241 0 -241c0 0 -63 0 -63 0c0 0 0 241 0 241c0 0 0 0 0 0m-123 0c0 0 62 0 62 0c0 0 0 -241 0 -241c0 0 -62 0 -62 0c0 0 0 148 0 148c0 0 -1 0 -1 0c0 0 -115 -148 -115 -148c0 0 -62 0 -62 0c0 0 0 241 0 241c0 0 62 0 62 0c0 0 0 -147 0 -147c0 0 1 0 1 0c0 0 115 147 115 147m-75 -467c0 15.333 -11.333 23 -34 23c0 0 -7 0 -7 0c0 0 0 -46 0 -46c0 0 8 0 8 0c22 0 33 7.667 33 23c0 0 0 0 0 0m17 96c0 17.333 -14 26 -42 26c0 0 -16 0 -16 0c0 0 0 -52 0 -52c0 0 23 0 23 0c23.333 0 35 8.667 35 26c0 0 0 0 0 0" />
  </g>
</svg>