<svg height="1000px" width="1217px" xmlns="http://www.w3.org/2000/svg">
  <g>
    <path d="M1217 43c0 0 0 131 0 131c0 12 -4.167 22.167 -12.5 30.5c-8.333 8.333 -18.5 12.5 -30.5 12.5c0 0 -1131 0 -1131 0c-11.333 0 -21.333 -4.167 -30 -12.5c-8.667 -8.333 -13 -18.5 -13 -30.5c0 0 0 -131 0 -131c0 -11.333 4.333 -21.333 13 -30c8.667 -8.667 18.667 -13 30 -13c0 0 1131 0 1131 0c12 0 22.167 4.333 30.5 13c8.333 8.667 12.5 18.667 12.5 30c0 0 0 0 0 0m-43 305c0 0 0 609 0 609c0 11.333 -4.333 21.333 -13 30c-8.667 8.667 -19 13 -31 13c0 0 -1043 0 -1043 0c-12 0 -22.333 -4.333 -31 -13c-8.667 -8.667 -13 -18.667 -13 -30c0 0 0 -609 0 -609c0 -12 4.333 -22.333 13 -31c8.667 -8.667 19 -13 31 -13c0 0 1043 0 1043 0c12 0 22.333 4.333 31 13c8.667 8.667 13 19 13 31c0 0 0 0 0 0m-304 152c0 -18 -6.5 -33.333 -19.5 -46c-13 -12.667 -28.5 -19 -46.5 -19c0 0 -391 0 -391 0c-18 0 -33.333 6.333 -46 19c-12.667 12.667 -19 28 -19 46c0 18 6.333 33.333 19 46c12.667 12.667 28 19 46 19c0 0 391 0 391 0c18 0 33.5 -6.333 46.5 -19c13 -12.667 19.5 -28 19.5 -46c0 0 0 0 0 0" />
  </g>
</svg>