<svg height="1000px" width="857px" xmlns="http://www.w3.org/2000/svg">
  <g>
    <path d="M707 150c0 0 150 -150 150 -150c0 0 0 405 0 405c0 0 -405 0 -405 0c0 0 153 -153 153 -153c-51.333 -41.333 -110 -62 -176 -62c-74 0 -138.5 25.333 -193.5 76c-55 50.667 -85.5 112.667 -91.5 186c0 0 -143 0 -143 0c6 -113.333 50.333 -209 133 -287c82.667 -78 181 -117 295 -117c104.667 0 197.333 34 278 102c0 0 0 0 0 0m-278 660c74 0 138.333 -25.333 193 -76c54.667 -50.667 85 -112.667 91 -186c0 0 143 0 143 0c-6 113.333 -50.333 209 -133 287c-82.667 78 -180.667 117 -294 117c-105.333 0 -198.333 -34 -279 -102c0 0 -150 150 -150 150c0 0 0 -405 0 -405c0 0 405 0 405 0c0 0 -153 153 -153 153c52 41.333 111 62 177 62c0 0 0 0 0 0" />
  </g>
</svg>