<svg height="1000px" width="1113px" xmlns="http://www.w3.org/2000/svg">
  <g>
    <path d="M1113 293c0 44.667 -8.833 87.833 -26.5 129.5c-17.667 41.667 -42.167 78.167 -73.5 109.5c0 0 -448 444 -448 444c0 0 -62 -61 -62 -61c0 0 448 -444 448 -444c49.333 -48 74 -107.333 74 -178c0 -59.333 -19.5 -108.5 -58.5 -147.5c-39 -39 -88.167 -58.5 -147.5 -58.5c-68 0 -128 25 -180 75c0 0 -493 489 -493 489c-39.333 39.333 -59 83.667 -59 133c0 38 12.333 69.167 37 93.5c24.667 24.333 56 36.5 94 36.5c50 0 94.667 -19.667 134 -59c0 0 377 -372 377 -372c35.333 -36.667 53 -69 53 -97c0 -14 -5.333 -25 -16 -33c-10.667 -8 -23.333 -12 -38 -12c-32 0 -60.667 13.333 -86 40c0 0 -340 336 -340 336c0 0 -61 -61 -61 -61c0 0 339 -336 339 -336c44 -44 93.333 -66 148 -66c38.667 0 72 12.333 100 37c28 24.667 42 56 42 94c0 52 -26.333 105 -79 159c0 0 -377 372 -377 372c-56 56 -121.333 84 -196 84c-62 0 -113.833 -20.5 -155.5 -61.5c-41.667 -41 -62.5 -92.5 -62.5 -154.5c0 -73.333 28 -138 84 -194c0 0 493 -489 493 -489c69.333 -67.333 150 -101 242 -101c83.333 0 153.167 28 209.5 84c56.333 56 84.5 125.667 84.5 209c0 0 0 0 0 0" />
  </g>
</svg>