<svg height="1000" width="1113" xmlns="http://www.w3.org/2000/svg"><path d="M1113 294q0 67 -26.5 129.5t-73.5 109.5l-448 444 -62 -61 448 -444q74 -72 74 -178 0 -89 -58.5 -147.5t-147.5 -58.5q-102 0 -180 75l-493 489q-59 59 -59 133 0 57 37 93.5t94 36.5q75 0 134 -59l377 -372q53 -55 53 -97 0 -21 -16 -33t-38 -12q-48 0 -86 40l-340 336 -61 -61 339 -336q66 -66 148 -66 58 0 100 37t42 94q0 78 -79 159l-377 372q-84 84 -196 84 -93 0 -155.5 -61.5t-62.5 -154.5q0 -110 84 -194l493 -489q104 -101 242 -101 125 0 209.5 84t84.5 209z"/></svg>