<svg height="1000px" width="1113px" xmlns="http://www.w3.org/2000/svg">
  <g>
    <path d="M1113 920c0 26 -9.167 45.833 -27.5 59.5c-18.333 13.667 -40.833 20.5 -67.5 20.5c0 0 -923 0 -923 0c-26.667 0 -49.167 -7 -67.5 -21c-18.333 -14 -27.5 -33.667 -27.5 -59c0 -20 6 -40.333 18 -61c0 0 461 -804 461 -804c22 -36.667 48 -55 78 -55c30 0 55.333 18.333 76 55c0 0 462 805 462 805c12 21.333 18 41.333 18 60c0 0 0 0 0 0m-487 -511c0 0 0 -146 0 -146c0 0 -139 0 -139 0c0 0 0 146 0 146c0 9.333 0.667 18.167 2 26.5c1.333 8.333 3.167 17.667 5.5 28c2.333 10.333 4.167 19.167 5.5 26.5c0 0 26 162 26 162c0 0 59 0 59 0c0 0 27 -162 27 -162c1.333 -6.667 3.333 -15.333 6 -26c2.667 -10.667 4.667 -20.167 6 -28.5c1.333 -8.333 2 -17.167 2 -26.5c0 0 0 0 0 0m0 387c0 -19.333 -6.833 -35.667 -20.5 -49c-13.667 -13.333 -30.167 -20 -49.5 -20c-18.667 0 -34.833 6.667 -48.5 20c-13.667 13.333 -20.5 29.667 -20.5 49c0 19.333 6.833 35.833 20.5 49.5c13.667 13.667 29.833 20.5 48.5 20.5c19.333 0 35.833 -6.833 49.5 -20.5c13.667 -13.667 20.5 -30.167 20.5 -49.5c0 0 0 0 0 0" />
  </g>
</svg>