<svg height="1000px" width="1000px" xmlns="http://www.w3.org/2000/svg">
  <g>
    <path d="M1000 500c0 90.667 -22.333 174.333 -67 251c-44.667 76.667 -105.333 137.333 -182 182c-76.667 44.667 -160.333 67 -251 67c-90.667 0 -174.333 -22.333 -251 -67c-76.667 -44.667 -137.333 -105.333 -182 -182c-44.667 -76.667 -67 -160.333 -67 -251c0 -90.667 22.333 -174.333 67 -251c44.667 -76.667 105.333 -137.333 182 -182c76.667 -44.667 160.333 -67 251 -67c90.667 0 174.333 22.333 251 67c76.667 44.667 137.333 105.333 182 182c44.667 76.667 67 160.333 67 251c0 0 0 0 0 0m-117 0c0 -105.333 -37.5 -195.5 -112.5 -270.5c-75 -75 -165.167 -112.5 -270.5 -112.5c-84 0 -159.333 24.667 -226 74c0 0 535 535 535 535c49.333 -66.667 74 -142 74 -226c0 0 0 0 0 0m-157 309c0 0 -535 -535 -535 -535c-49.333 66.667 -74 142 -74 226c0 105.333 37.5 195.5 112.5 270.5c75 75 165.167 112.5 270.5 112.5c84 0 159.333 -24.667 226 -74c0 0 0 0 0 0" />
  </g>
</svg>