<svg height="1000" width="1000" xmlns="http://www.w3.org/2000/svg"><path d="M1000 501q0 136 -67 251t-182 182 -251 67 -251 -67 -182 -182 -67 -251 67 -251 182 -182 251 -67 251 67 182 182 67 251zm-117 0q0 -158 -112.5 -270.5t-270.5 -112.5q-126 0 -226 74l2 2q-48 35 -83 83l-2 -2q-74 100 -74 226 0 158 112.5 270.5t270.5 112.5q126 0 226 -74l-2 -2q48 -35 83 -83l2 2q74 -100 74 -226zm-203 200q0 25 -17.5 42.5t-42.5 17.5q-26 0 -42 -18l-120 -120q-18 -18 -18 -62v-320q0 -25 17.5 -42.5t42.5 -17.5 42.5 17.5 17.5 42.5v315l102 103q18 16 18 42z"/></svg>