<svg height="1000px" width="1000px" xmlns="http://www.w3.org/2000/svg">
  <g>
    <path d="M1000 500c0 90.667 -22.333 174.333 -67 251c-44.667 76.667 -105.333 137.333 -182 182c-76.667 44.667 -160.333 67 -251 67c-90.667 0 -174.333 -22.333 -251 -67c-76.667 -44.667 -137.333 -105.333 -182 -182c-44.667 -76.667 -67 -160.333 -67 -251c0 -90.667 22.333 -174.333 67 -251c44.667 -76.667 105.333 -137.333 182 -182c76.667 -44.667 160.333 -67 251 -67c90.667 0 174.333 22.333 251 67c76.667 44.667 137.333 105.333 182 182c44.667 76.667 67 160.333 67 251c0 0 0 0 0 0m-117 0c0 -105.333 -37.5 -195.5 -112.5 -270.5c-75 -75 -165.167 -112.5 -270.5 -112.5c-84 0 -159.333 24.667 -226 74c0 0 2 2 2 2c-32 23.333 -59.667 51 -83 83c0 0 -2 -2 -2 -2c-49.333 66.667 -74 142 -74 226c0 105.333 37.5 195.5 112.5 270.5c75 75 165.167 112.5 270.5 112.5c84 0 159.333 -24.667 226 -74c0 0 -2 -2 -2 -2c32 -23.333 59.667 -51 83 -83c0 0 2 2 2 2c49.333 -66.667 74 -142 74 -226c0 0 0 0 0 0m-203 200c0 16.667 -5.833 30.833 -17.5 42.5c-11.667 11.667 -25.833 17.5 -42.5 17.5c-17.333 0 -31.333 -6 -42 -18c0 0 -120 -120 -120 -120c-12 -12 -18 -32.667 -18 -62c0 0 0 -320 0 -320c0 -16.667 5.833 -30.833 17.5 -42.5c11.667 -11.667 25.833 -17.5 42.5 -17.5c16.667 0 30.833 5.833 42.5 17.5c11.667 11.667 17.5 25.833 17.5 42.5c0 0 0 315 0 315c0 0 102 103 102 103c12 10.667 18 24.667 18 42c0 0 0 0 0 0" />
  </g>
</svg>