<svg height="1000px" width="1435px" xmlns="http://www.w3.org/2000/svg">
  <g>
    <path d="M1435 717c0 74 -25.167 138.167 -75.5 192.5c-50.333 54.333 -112.167 84.167 -185.5 89.5c0 0 0 1 0 1c0 0 -870 0 -870 0c0 0 0 -1 0 -1c-4.667 0.667 -11.667 1 -21 1c-78 0 -144.667 -27.667 -200 -83c-55.333 -55.333 -83 -122 -83 -200c0 -49.333 12.333 -95.667 37 -139c24.667 -43.333 58.333 -77.667 101 -103c-5.333 -21.333 -8 -42 -8 -62c0 -78 27.667 -144.667 83 -200c55.333 -55.333 122 -83 200 -83c68.667 0 130.667 23.333 186 70c28.667 -60.667 71.5 -109.167 128.5 -145.5c57 -36.333 118.833 -54.5 185.5 -54.5c96 0 178 34 246 102c68 68 102 150 102 246c0 36.667 -5.333 71 -16 103c56.667 19.333 102.5 53.667 137.5 103c35 49.333 52.5 103.667 52.5 163c0 0 0 0 0 0" />
  </g>
</svg>