<svg height="1000px" width="1000px" xmlns="http://www.w3.org/2000/svg">
  <g>
    <path d="M1000 428c0 0 0 142 0 142c0 0 -185 26 -185 26c-6.667 18 -13.667 34.667 -21 50c0 0 120 157 120 157c0 0 -102 100 -102 100c0 0 -159 -118 -159 -118c-13.333 6.667 -30.333 13.667 -51 21c0 0 -30 194 -30 194c0 0 -143 0 -143 0c0 0 -27 -197 -27 -197c-14 -4.667 -28.333 -10.667 -43 -18c0 0 -161 119 -161 119c0 0 -101 -100 -101 -100c0 0 121 -160 121 -160c-7.333 -14 -13.667 -29.333 -19 -46c0 0 -199 -28 -199 -28c0 0 0 -142 0 -142c0 0 199 -28 199 -28c4.667 -14 11 -29 19 -45c0 0 -120 -159 -120 -159c0 0 101 -100 101 -100c0 0 160 119 160 119c10 -5.333 25.667 -12 47 -20c0 0 28 -195 28 -195c0 0 143 0 143 0c0 0 28 195 28 195c14.667 4.667 30.667 11 48 19c0 0 158 -117 158 -117c0 0 102 100 102 100c0 0 -119 156 -119 156c8.667 18 15.333 34 20 48c0 0 186 27 186 27m-348 72c0 -40 -14.333 -74 -43 -102c-28.667 -28 -63 -42 -103 -42c-40 0 -74.167 14 -102.5 42c-28.333 28 -42.5 62 -42.5 102c0 40 14.167 74 42.5 102c28.333 28 62.5 42 102.5 42c40 0 74.333 -14 103 -42c28.667 -28 43 -62 43 -102c0 0 0 0 0 0" />
  </g>
</svg>