<svg height="1000px" width="1137px" xmlns="http://www.w3.org/2000/svg">
  <g>
    <path d="M1137 100c0 0 0 532 0 532c0 27.333 -9.833 50.833 -29.5 70.5c-19.667 19.667 -43.167 29.5 -70.5 29.5c0 0 -168 0 -168 0c0 0 0 268 0 268c0 0 -267 -268 -267 -268c0 0 -502 0 -502 0c-27.333 0 -50.833 -9.833 -70.5 -29.5c-19.667 -19.667 -29.5 -43.167 -29.5 -70.5c0 0 0 -532 0 -532c0 -27.333 9.833 -50.833 29.5 -70.5c19.667 -19.667 43.167 -29.5 70.5 -29.5c0 0 937 0 937 0c27.333 0 50.833 9.833 70.5 29.5c19.667 19.667 29.5 43.167 29.5 70.5c0 0 0 0 0 0" />
  </g>
</svg>