<svg height="1000px" width="1179px" xmlns="http://www.w3.org/2000/svg">
  <g>
    <path d="M1179 464c0 84 -26.333 161.833 -79 233.5c-52.667 71.667 -124.333 128.167 -215 169.5c-90.667 41.333 -189.333 62 -296 62c-81.333 0 -159.333 -13 -234 -39c0 0 2 3 2 3c0 0 -357 107 -357 107c29.333 -39.333 52.833 -81.5 70.5 -126.5c17.667 -45 28.167 -80.167 31.5 -105.5c0 0 4 -38 4 -38c-70.667 -80 -106 -168.667 -106 -266c0 -84 26.333 -161.667 79 -233c52.667 -71.333 124.167 -127.667 214.5 -169c90.333 -41.333 188.833 -62 295.5 -62c106.667 0 205.333 20.667 296 62c90.667 41.333 162.333 97.667 215 169c52.667 71.333 79 149 79 233c0 0 0 0 0 0" />
  </g>
</svg>