<svg height="1000px" width="1000px" xmlns="http://www.w3.org/2000/svg">
  <g>
    <path d="M1000 500c0 90.667 -22.333 174.333 -67 251c-44.667 76.667 -105.333 137.333 -182 182c-76.667 44.667 -160.333 67 -251 67c-90.667 0 -174.333 -22.333 -251 -67c-76.667 -44.667 -137.333 -105.333 -182 -182c-44.667 -76.667 -67 -160.333 -67 -251c0 -90.667 22.333 -174.333 67 -251c44.667 -76.667 105.333 -137.333 182 -182c76.667 -44.667 160.333 -67 251 -67c90.667 0 174.333 22.333 251 67c76.667 44.667 137.333 105.333 182 182c44.667 76.667 67 160.333 67 251c0 0 0 0 0 0m-260 80c0 0 180 -180 180 -180c0 0 -120 0 -120 0c-20 -61.333 -59.5 -112.167 -118.5 -152.5c-59 -40.333 -121.167 -60.5 -186.5 -60.5c-87.333 0 -162 30.833 -224 92.5c-62 61.667 -93 136.167 -93 223.5c0 87.333 31 161.833 93 223.5c62 61.667 136.667 92.5 224 92.5c87.333 0 161.667 -30.667 223 -92c0 0 -62 -71 -62 -71c-44 42.667 -96 64 -156 64c-60.667 0 -112.5 -21.5 -155.5 -64.5c-43 -43 -64.5 -94.833 -64.5 -155.5c0 -60.667 21.5 -112.5 64.5 -155.5c43 -43 94.833 -64.5 155.5 -64.5c63.333 0 115.333 21.333 156 64c5.333 5.333 9.167 10.833 11.5 16.5c2.333 5.667 4.5 12.5 6.5 20.5c2 8 4 14.333 6 19c0 0 -120 0 -120 0c0 0 180 180 180 180" />
  </g>
</svg>