<svg height="1000px" width="1000px" xmlns="http://www.w3.org/2000/svg">
  <g>
    <path d="M1000 88c0 0 0 824 0 824c0 24 -8.667 44.667 -26 62c-17.333 17.333 -38 26 -62 26c0 0 -824 0 -824 0c-24 0 -44.667 -8.667 -62 -26c-17.333 -17.333 -26 -38 -26 -62c0 0 0 -824 0 -824c0 -24 8.667 -44.667 26 -62c17.333 -17.333 38 -26 62 -26c0 0 824 0 824 0c24 0 44.667 8.667 62 26c17.333 17.333 26 38 26 62c0 0 0 0 0 0m-187 160c0 0 20 -118 20 -118c-28.667 -10 -76.333 -15 -143 -15c-52.667 0 -93.667 19.333 -123 58c-17.333 22.667 -26 62.333 -26 119c0 0 0 6 0 6c0 0 0 36 0 36c0 0 0 36 0 36c0 0 -79 0 -79 0c0 0 0 115 0 115c0 0 79 0 79 0c0 0 0 400 0 400c0 0 149 0 149 0c0 0 0 -400 0 -400c0 0 118 0 118 0c0 0 9 -115 9 -115c0 0 -127 0 -127 0c0 0 0 -36 0 -36c0 0 0 -42 0 -42c0 0 0 -12 0 -12c0 -28 19.667 -42 59 -42c20.667 0 42 3.333 64 10c0 0 0 0 0 0" />
  </g>
</svg>