<svg height="1000px" width="1391px" xmlns="http://www.w3.org/2000/svg">
  <g>
    <path d="M1313 217c0 0 -1235 0 -1235 0c6 -32 15 -54.333 27 -67c10.667 -11.333 21 -17 31 -17c0 0 4 0 4 0c2.667 0.667 5.333 1 8 1c8 0 16.667 -1.333 26 -4c12 -4 20.333 -13.667 25 -29c0 0 24 -72 24 -72c51.333 -19.333 120.667 -29 208 -29c59.333 0 114 9.667 164 29c0 0 25 72 25 72c16 15.333 26.833 24 32.5 26c5.667 2 20.167 3 43.5 3c0 0 485 0 485 0c56 0 92.667 7.333 110 22c8 7.333 15.333 29 22 65c0 0 0 0 0 0m78 164c0 0 0 10 0 10c0 0 -68 523 -68 523c-3.333 23.333 -14.5 43.5 -33.5 60.5c-19 17 -40.5 25.5 -64.5 25.5c0 0 -1058 0 -1058 0c-24 0 -45.833 -8.5 -65.5 -25.5c-19.667 -17 -30.833 -37.167 -33.5 -60.5c0 0 -67 -523 -67 -523c-0.667 -2 -1 -5.333 -1 -10c0 -22 7.5 -40.167 22.5 -54.5c15 -14.333 33.5 -21.5 55.5 -21.5c0 0 1235 0 1235 0c22 0 40.5 7.167 55.5 21.5c15 14.333 22.5 32.5 22.5 54.5c0 0 0 0 0 0" />
  </g>
</svg>