<svg height="1000" width="925" xmlns="http://www.w3.org/2000/svg"><path d="M925 974h-264q-15 -40 -18 -92 -120 119 -306 119 -95 0 -169 -29t-121 -95 -47 -162q0 -40 8.5 -74t21 -59.5 35.5 -47.5 43 -36.5 53.5 -27.5 57.5 -20.5 64 -15 63.5 -11 65.5 -8.5q50 -6 100 -15 24 -4 37 -7t34 -11 32 -17 19.5 -25.5 8.5 -38.5q0 -126 -170 -126 -87 0 -130.5 31.5t-56.5 113.5h-244q6 -90 44 -154t100.5 -99 134.5 -50.5 159 -15.5q68 0 124.5 7.5t111.5 28.5 92.5 54.5 60.5 89 23 128.5v408q0 64 .5 91t8.5 77.5 24 88.5zm-284 -354v-106q-33 19 -87 30.5t-100.5 18.5 -90.5 19.5 -70 42.5 -26 79q0 62 40 94.5t103 32.5q103 0 167 -55t64 -156z"/></svg>