<svg height="1000px" width="925px" xmlns="http://www.w3.org/2000/svg">
  <g>
    <path d="M925 973c0 0 -264 0 -264 0c-10 -26.667 -16 -57.333 -18 -92c-80 79.333 -182 119 -306 119c-63.333 0 -119.667 -9.667 -169 -29c-49.333 -19.333 -89.667 -51 -121 -95c-31.333 -44 -47 -98 -47 -162c0 -26.667 2.833 -51.333 8.5 -74c5.667 -22.667 12.667 -42.5 21 -59.5c8.333 -17 20.167 -32.833 35.5 -47.5c15.333 -14.667 29.667 -26.833 43 -36.5c13.333 -9.667 31.167 -18.833 53.5 -27.5c22.333 -8.667 41.5 -15.5 57.5 -20.5c16 -5 37.333 -10 64 -15c26.667 -5 47.833 -8.667 63.5 -11c15.667 -2.333 37.5 -5.167 65.5 -8.5c33.333 -4 66.667 -9 100 -15c16 -2.667 28.333 -5 37 -7c8.667 -2 20 -5.667 34 -11c14 -5.333 24.667 -11 32 -17c7.333 -6 13.833 -14.5 19.5 -25.5c5.667 -11 8.5 -23.833 8.5 -38.5c0 -84 -56.667 -126 -170 -126c-58 0 -101.5 10.5 -130.5 31.5c-29 21 -47.833 58.833 -56.5 113.5c0 0 -244 0 -244 0c4 -60 18.667 -111.333 44 -154c25.333 -42.667 58.833 -75.667 100.5 -99c41.667 -23.333 86.5 -40.167 134.5 -50.5c48 -10.333 101 -15.5 159 -15.5c45.333 0 86.833 2.5 124.5 7.5c37.667 5 74.833 14.5 111.5 28.5c36.667 14 67.5 32.167 92.5 54.5c25 22.333 45.167 52 60.5 89c15.333 37 23 79.833 23 128.5c0 0 0 408 0 408c0 42.667 0.167 73 0.5 91c0.333 18 3.167 43.833 8.5 77.5c5.333 33.667 13.333 63.167 24 88.5c0 0 0 0 0 0m-284 -354c0 0 0 -106 0 -106c-22 12.667 -51 22.833 -87 30.5c-36 7.667 -69.5 13.833 -100.5 18.5c-31 4.667 -61.167 11.167 -90.5 19.5c-29.333 8.333 -52.667 22.5 -70 42.5c-17.333 20 -26 46.333 -26 79c0 41.333 13.333 72.833 40 94.5c26.667 21.667 61 32.5 103 32.5c68.667 0 124.333 -18.333 167 -55c42.667 -36.667 64 -88.667 64 -156c0 0 0 0 0 0" />
  </g>
</svg>