<svg height="1000px" width="1000px" xmlns="http://www.w3.org/2000/svg">
  <g>
    <path d="M1000 88c0 0 0 824 0 824c0 24 -8.667 44.667 -26 62c-17.333 17.333 -38 26 -62 26c0 0 -824 0 -824 0c-24 0 -44.667 -8.667 -62 -26c-17.333 -17.333 -26 -38 -26 -62c0 0 0 -824 0 -824c0 -24 8.667 -44.667 26 -62c17.333 -17.333 38 -26 62 -26c0 0 824 0 824 0c24 0 44.667 8.667 62 26c17.333 17.333 26 38 26 62c0 0 0 0 0 0m-237 239c0 0 121 0 121 0c0 0 0 -60 0 -60c0 0 -121 0 -121 0c0 0 0 -122 0 -122c0 0 -60 0 -60 0c0 0 0 122 0 122c0 0 -122 0 -122 0c0 0 0 60 0 60c0 0 122 0 122 0c0 0 0 121 0 121c0 0 60 0 60 0c0 0 0 -121 0 -121c0 0 0 0 0 0m-215 -163c0 -7.333 -7.333 -11 -22 -11c-2 -0.667 -19.333 -1 -52 -1c0 0 -42.5 0 -42.5 0c0 0 -29.5 0 -29.5 0c-16 0 -36.333 1.333 -61 4c-24.667 2.667 -44.333 6.333 -59 11c-38.667 12.667 -69.5 33.333 -92.5 62c-23 28.667 -34.5 62.667 -34.5 102c0 46.667 14.667 84.333 44 113c28.667 28 65.667 42 111 42c0 0 3 0 3 0c0 0 6 0 6 0c0 16 0.667 27.667 2 35c1.333 7.333 3 11.167 5 11.5c2 0.333 4.5 2 7.5 5c3 3 5.833 7.833 8.5 14.5c-36.667 0 -70.833 4 -102.5 12c-31.667 8 -60.167 24 -85.5 48c-25.333 24 -38 54.333 -38 91c0 51.333 20.5 89.5 61.5 114.5c41 25 88.833 37.5 143.5 37.5c61.333 0 114.5 -15.167 159.5 -45.5c45 -30.333 67.5 -74.833 67.5 -133.5c0 -25.333 -6.5 -49.667 -19.5 -73c-13 -23.333 -27.5 -41.667 -43.5 -55c-16 -13.333 -30.5 -26.167 -43.5 -38.5c-13 -12.333 -19.5 -21.833 -19.5 -28.5c0 -7.333 5 -15.833 15 -25.5c10 -9.667 21.167 -19.333 33.5 -29c12.333 -9.667 23.5 -25.167 33.5 -46.5c10 -21.333 15 -46 15 -74c0 -50.667 -14.667 -86.333 -44 -107c0.667 0 5.833 -0.5 15.5 -1.5c9.667 -1 16.5 -2 20.5 -3c4 -1 9.667 -2.667 17 -5c7.333 -2.333 12.5 -5.667 15.5 -10c3 -4.333 4.5 -9.5 4.5 -15.5c0 0 0 0 0 0m-135 170c0 23.333 -5.167 43.333 -15.5 60c-10.333 16.667 -26.5 25 -48.5 25c-28.667 0 -51.5 -15.167 -68.5 -45.5c-17 -30.333 -25.5 -60.833 -25.5 -91.5c0 -23.333 5.167 -43.333 15.5 -60c10.333 -16.667 26.5 -25 48.5 -25c28.667 0 51.5 15.167 68.5 45.5c17 30.333 25.5 60.833 25.5 91.5c0 0 0 0 0 0m55 345c0 29.333 -14.333 53 -43 71c-28.667 18 -58.667 27 -90 27c-31.333 0 -59.833 -8 -85.5 -24c-25.667 -16 -38.5 -38.667 -38.5 -68c0 -32 13.667 -56 41 -72c27.333 -16 58 -24 92 -24c30.667 0 59 7.833 85 23.5c26 15.667 39 37.833 39 66.5c0 0 0 0 0 0" />
  </g>
</svg>