<svg height="1000" width="1000" xmlns="http://www.w3.org/2000/svg"><path d="M1000 89v824q0 36 -26 62t-62 26h-824q-36 0 -62 -26t-26 -62v-824q0 -36 26 -62t62 -26h824q36 0 62 26t26 62zm-237 239h121v-60h-121v-122h-60v122h-122v60h122v121h60v-121zm-215 -163q0 -11 -22 -11 -3 -1 -52 -1h-72q-24 0 -61 4t-59 11q-58 19 -92.5 62t-34.5 102q0 70 44 113 43 42 111 42h9q0 24 2 35t5 11.5 7.5 5 8.5 14.5q-55 0 -102.5 12t-85.5 48 -38 91q0 77 61.5 114.5t143.5 37.5q92 0 159.5 -45.5t67.5 -133.5q0 -38 -19.5 -73t-43.5 -55 -43.5 -38.5 -19.5 -28.5q0 -11 15 -25.5t33.5 -29 33.5 -46.5 15 -74q0 -76 -44 -107 1 0 15.5 -1.5t20.5 -3 17 -5 15.5 -10 4.5 -15.5zm-135 170q0 35 -15.5 60t-48.5 25q-43 0 -68.5 -45.5t-25.5 -91.5q0 -35 15.5 -60t48.5 -25q43 0 68.5 45.5t25.5 91.5zm55 345q0 44 -43 71t-90 27 -85.5 -24 -38.5 -68q0 -48 41 -72t92 -24q46 0 85 23.5t39 66.5z"/></svg>