<svg height="1000px" width="1063px" xmlns="http://www.w3.org/2000/svg">
  <g>
    <path d="M1063 287c0 0 0 60 0 60c0 190 -177.333 407.667 -532 653c-354 -244.667 -531 -462.333 -531 -653c0 0 0 -60 0 -60c0 -84.667 26.833 -153.667 80.5 -207c53.667 -53.333 122.5 -80 206.5 -80c54 0 98.667 10.167 134 30.5c35.333 20.333 72 53.167 110 98.5c38.667 -45.333 75.667 -78.167 111 -98.5c35.333 -20.333 79.667 -30.5 133 -30.5c84 0 153 26.667 207 80c54 53.333 81 122.333 81 207c0 0 0 0 0 0m-117 55c0 0 0 -50 0 -50c0 -38.667 -13 -76.5 -39 -113.5c-26 -37 -57.667 -57.5 -95 -61.5c-8 -1.333 -20.333 -2 -37 -2c-35.333 0 -63 6.5 -83 19.5c-20 13 -44 35.833 -72 68.5c0 0 -89 105 -89 105c0 0 -89 -105 -89 -105c-28 -32.667 -52 -55.5 -72 -68.5c-20 -13 -47.667 -19.5 -83 -19.5c-16 0 -28.333 0.667 -37 2c-37.333 4 -68.5 24 -93.5 60c-25 36 -38.5 74.333 -40.5 115c0 0 0 50 0 50c0 20 5.667 45 17 75c45.333 132.667 178 279.667 398 441c219.333 -159.333 352.333 -306.333 399 -441c10.667 -33.333 16 -58.333 16 -75c0 0 0 0 0 0" />
  </g>
</svg>