<svg height="1000px" width="1000px" xmlns="http://www.w3.org/2000/svg">
  <g>
    <path d="M1000 88c0 0 0 824 0 824c0 24 -8.667 44.667 -26 62c-17.333 17.333 -38 26 -62 26c0 0 -824 0 -824 0c-24 0 -44.667 -8.667 -62 -26c-17.333 -17.333 -26 -38 -26 -62c0 0 0 -824 0 -824c0 -24 8.667 -44.667 26 -62c17.333 -17.333 38 -26 62 -26c0 0 824 0 824 0c24 0 44.667 8.667 62 26c17.333 17.333 26 38 26 62c0 0 0 0 0 0m-332 712c0 0 129 0 129 0c0 0 0 -247 0 -247c0 -59.333 -13.667 -104.333 -41 -135c-27.333 -30.667 -63 -46 -107 -46c-31.333 0 -57.833 7 -79.5 21c-21.667 14 -37.833 29.667 -48.5 47c0 0 -2 0 -2 0c0 0 -6 -59 -6 -59c0 0 -111 0 -111 0c2 76 3 120.667 3 134c0 0 0 285 0 285c0 0 128 0 128 0c0 0 0 -241 0 -241c0 -14 1.333 -25 4 -33c13.333 -32.667 35.333 -49 66 -49c43.333 0 65 30.333 65 91c0 0 0 232 0 232c0 0 0 0 0 0m-354.5 -581.5c-12.333 -12.333 -28.5 -18.5 -48.5 -18.5c-20 0 -36.333 6.167 -49 18.5c-12.667 12.333 -19 27.833 -19 46.5c0 18.667 6.167 34.167 18.5 46.5c12.333 12.333 28.167 18.5 47.5 18.5c21.333 0 38.333 -6 51 -18c12 -12 18 -26.667 18 -44c0 -20.667 -6.167 -37.167 -18.5 -49.5c0 0 0 0 0 0m-113.5 581.5c0 0 128 0 128 0c0 0 0 -419 0 -419c0 0 -128 0 -128 0c0 0 0 419 0 419c0 0 0 0 0 0" />
  </g>
</svg>