<svg height="1000px" width="1000px" xmlns="http://www.w3.org/2000/svg">
  <g>
    <path d="M1000 266c0 74.667 -26 137.333 -78 188c0 0 -175 176 -175 176c-52 52 -115 78 -189 78c-64.667 0 -121.667 -21 -171 -63c0 0 115 -115 115 -115c17.333 11.333 36 17 56 17c29.333 0 54.333 -10.333 75 -31c0 0 175 -176 175 -176c20.667 -19.333 31 -44 31 -74c0 -29.333 -10.167 -54.167 -30.5 -74.5c-20.333 -20.333 -45.167 -30.5 -74.5 -30.5c-16.667 0 -33.167 4 -49.5 12c-16.333 8 -27.167 19.333 -32.5 34c0 0 -238 0 -238 0c0 0 132 -129 132 -129c53.333 -52 116 -78 188 -78c73.333 0 136 26 188 78c52 52 78 114.667 78 188c0 0 0 0 0 0m-387 89c0 0 -115 115 -115 115c-17.333 -11.333 -36 -17 -56 -17c-29.333 0 -54.333 10.333 -75 31c0 0 -175 176 -175 176c-20.667 19.333 -31 44 -31 74c0 29.333 10.167 54.167 30.5 74.5c20.333 20.333 45.167 30.5 74.5 30.5c16.667 0 33.167 -4 49.5 -12c16.333 -8 27.167 -19.333 32.5 -34c0 0 238 0 238 0c0 0 -132 129 -132 129c-53.333 52 -116 78 -188 78c-73.333 0 -136 -26 -188 -78c-52 -52 -78 -114.667 -78 -188c0 -74.667 26 -137.333 78 -188c0 0 175 -176 175 -176c52 -52 115 -78 189 -78c64.667 0 121.667 21 171 63c0 0 0 0 0 0" />
  </g>
</svg>