<svg height="1000px" width="913px" xmlns="http://www.w3.org/2000/svg">
  <g>
    <path d="M913 59c0 0 0 213 0 213c0 0 -669 0 -669 0c0 0 0 -213 0 -213c0 0 669 0 669 0c0 0 0 0 0 0m0 334c0 0 0 213 0 213c0 0 -669 0 -669 0c0 0 0 -213 0 -213c0 0 669 0 669 0c0 0 0 0 0 0m-761 -228c0 20.667 -7.5 38.5 -22.5 53.5c-15 15 -32.833 22.5 -53.5 22.5c-20.667 0 -38.5 -7.5 -53.5 -22.5c-15 -15 -22.5 -32.833 -22.5 -53.5c0 -20.667 7.5 -38.5 22.5 -53.5c15 -15 32.833 -22.5 53.5 -22.5c20.667 0 38.5 7.5 53.5 22.5c15 15 22.5 32.833 22.5 53.5c0 0 0 0 0 0m761 563c0 0 0 213 0 213c0 0 -669 0 -669 0c0 0 0 -213 0 -213c0 0 669 0 669 0c0 0 0 0 0 0m-761 -228c0 21.333 -7.5 39.333 -22.5 54c-15 14.667 -32.833 22 -53.5 22c-20.667 0 -38.5 -7.333 -53.5 -22c-15 -14.667 -22.5 -32.667 -22.5 -54c0 -21.333 7.5 -39.333 22.5 -54c15 -14.667 32.833 -22 53.5 -22c20.667 0 38.5 7.333 53.5 22c15 14.667 22.5 32.667 22.5 54c0 0 0 0 0 0m0 335c0 20.667 -7.5 38.5 -22.5 53.5c-15 15 -32.833 22.5 -53.5 22.5c-20.667 0 -38.5 -7.5 -53.5 -22.5c-15 -15 -22.5 -32.833 -22.5 -53.5c0 -21.333 7.5 -39.5 22.5 -54.5c15 -15 32.833 -22.5 53.5 -22.5c20.667 0 38.5 7.5 53.5 22.5c15 15 22.5 33.167 22.5 54.5c0 0 0 0 0 0" />
  </g>
</svg>