<svg height="1000" width="1000" xmlns="http://www.w3.org/2000/svg"><path d="M1000 118v213h-669v-213h669zm0 334v213h-669v-213h669zm-804 -313v192h-42v-125h-46v-29q49 0 56 -38h32zm804 648v213h-669v-213h669zm-768 -161v33h-141q1 -28 17 -48.5t34.5 -30 34 -23.5 15.5 -30q0 -12 -7.5 -19.5t-20.5 -7.5q-29 0 -31 41h-37q0 -34 18 -54.5t52 -20.5q28 0 46.5 16t18.5 43q0 25 -16.5 41t-40 30.5 -33.5 29.5h91zm1 303q0 29 -21 45.5t-50 16.5q-32 0 -51.5 -17.5t-19.5 -48.5v-3h38q0 37 32 37 14 0 23 -8t9 -22 -10 -21.5 -25 -6.5h-9v-27h6q34 0 34 -24 0 -11 -7.5 -17.5t-19.5 -6.5q-29 0 -29 33h-37q1 -30 18.5 -47t47.5 -17q26 0 45 13.5t19 38.5q0 13 -7.5 24t-19.5 14q34 8 34 44z"/></svg>