<svg height="1000px" width="909px" xmlns="http://www.w3.org/2000/svg">
  <g>
    <path d="M909 59c0 0 0 213 0 213c0 0 -669 0 -669 0c0 0 0 -213 0 -213c0 0 669 0 669 0c0 0 0 0 0 0m0 334c0 0 0 213 0 213c0 0 -669 0 -669 0c0 0 0 -213 0 -213c0 0 669 0 669 0c0 0 0 0 0 0m-804 -313c0 0 0 192 0 192c0 0 -42 0 -42 0c0 0 0 -125 0 -125c0 0 -46 0 -46 0c0 0 0 -29 0 -29c32.667 0 51.333 -12.667 56 -38c0 0 32 0 32 0c0 0 0 0 0 0m804 648c0 0 0 213 0 213c0 0 -669 0 -669 0c0 0 0 -213 0 -213c0 0 669 0 669 0c0 0 0 0 0 0m-768 -161c0 0 0 33 0 33c0 0 -141 0 -141 0c0.667 -18.667 6.333 -34.833 17 -48.5c10.667 -13.667 22.167 -23.667 34.5 -30c12.333 -6.333 23.667 -14.167 34 -23.5c10.333 -9.333 15.5 -19.333 15.5 -30c0 -8 -2.5 -14.5 -7.5 -19.5c-5 -5 -11.833 -7.5 -20.5 -7.5c-19.333 0 -29.667 13.667 -31 41c0 0 -37 0 -37 0c0 -22.667 6 -40.833 18 -54.5c12 -13.667 29.333 -20.5 52 -20.5c18.667 0 34.167 5.333 46.5 16c12.333 10.667 18.5 25 18.5 43c0 16.667 -5.5 30.333 -16.5 41c-11 10.667 -24.333 20.833 -40 30.5c-15.667 9.667 -26.833 19.5 -33.5 29.5c0 0 91 0 91 0c0 0 0 0 0 0m1 303c0 19.333 -7 34.5 -21 45.5c-14 11 -30.667 16.5 -50 16.5c-21.333 0 -38.5 -5.833 -51.5 -17.5c-13 -11.667 -19.5 -27.833 -19.5 -48.5c0 0 0 -3 0 -3c0 0 38 0 38 0c0 24.667 10.667 37 32 37c9.333 0 17 -2.667 23 -8c6 -5.333 9 -12.667 9 -22c0 -9.333 -3.333 -16.5 -10 -21.5c-6.667 -5 -15 -7.167 -25 -6.5c0 0 -9 0 -9 0c0 0 0 -27 0 -27c0 0 6 0 6 0c22.667 0 34 -8 34 -24c0 -7.333 -2.5 -13.167 -7.5 -17.5c-5 -4.333 -11.5 -6.5 -19.5 -6.5c-19.333 0 -29 11 -29 33c0 0 -37 0 -37 0c0.667 -20 6.833 -35.667 18.5 -47c11.667 -11.333 27.5 -17 47.5 -17c17.333 0 32.333 4.5 45 13.5c12.667 9 19 21.833 19 38.5c0 8.667 -2.5 16.667 -7.5 24c-5 7.333 -11.5 12 -19.5 14c22.667 5.333 34 20 34 44c0 0 0 0 0 0" />
  </g>
</svg>