<svg height="1000px" width="586px" xmlns="http://www.w3.org/2000/svg">
  <g>
    <path d="M586 293c0 4.667 -0.5 11.667 -1.5 21c-1 9.333 -6.833 33.167 -17.5 71.5c-10.667 38.333 -25.167 81.667 -43.5 130c-18.333 48.333 -47.667 115.667 -88 202c-40.333 86.333 -87.833 180.5 -142.5 282.5c-54.667 -102 -102.167 -196 -142.5 -282c-40.333 -86 -69.667 -154 -88 -204c-18.333 -50 -32.667 -92.667 -43 -128c-10.333 -35.333 -16.167 -59.667 -17.5 -73c0 0 -2 -20 -2 -20c0 -80.667 28.667 -149.667 86 -207c57.333 -57.333 126.333 -86 207 -86c80.667 0 149.667 28.667 207 86c57.333 57.333 86 126.333 86 207c0 0 0 0 0 0m-207 0c0 -24 -8.333 -44.333 -25 -61c-16.667 -16.667 -37 -25 -61 -25c-24 0 -44.333 8.333 -61 25c-16.667 16.667 -25 37 -25 61c0 24 8.333 44.333 25 61c16.667 16.667 37 25 61 25c24 0 44.333 -8.333 61 -25c16.667 -16.667 25 -37 25 -61c0 0 0 0 0 0" />
  </g>
</svg>