<svg height="1000px" width="582px" xmlns="http://www.w3.org/2000/svg">
  <g>
    <path d="M582 515.5c0 0 0 356 0 356c0 21.333 -10.667 32 -32 32c0 0 -518 0 -518 0c-21.333 0 -32 -10.667 -32 -32c0 0 0 -356 0 -356c0 -22 10.667 -33 32 -33c0 0 389 0 389 0c0 0 0 -194 0 -194c0 -34 -12.333 -58.667 -37 -74c-24.667 -15.333 -55 -23 -91 -23c-35.333 0 -66 8.5 -92 25.5c-26 17 -39 42.5 -39 76.5c0 0 0 125 0 125c0 0 -97 0 -97 0c0 0 0 -128 0 -128c0 0 1 0 1 0c6 -58 30.667 -104.833 74 -140.5c43.333 -35.667 94.333 -53.5 153 -53.5c58.667 0 109 21 151 63c42 42 65.667 92.333 71 151c0 0 1 0 1 0c0 0 2 172 2 172c2.667 0 7.5 -0.167 14.5 -0.5c7 -0.333 12 -0.333 15 0c3 0.333 7.333 1 13 2c5.667 1 9.667 2.667 12 5c2.333 2.333 4.5 5.667 6.5 10c2 4.333 3 9.833 3 16.5c0 0 0 0 0 0" />
  </g>
</svg>