<svg height="1000px" width="1188px" xmlns="http://www.w3.org/2000/svg">
  <g>
    <path d="M912 235c0 0 276 266 276 266c0 0 -276 264 -276 264c0 0 0 -177 0 -177c0 0 -413 0 -413 0c0 0 0 -176 0 -176c0 0 413 0 413 0c0 0 0 -177 0 -177c0 0 0 0 0 0m-166 512c0 0 106 107 106 107c-104 97.333 -216.667 146 -338 146c-144.667 0 -266.5 -47.833 -365.5 -143.5c-99 -95.667 -148.5 -215.167 -148.5 -358.5c0 -90 22.667 -173.333 68 -250c45.333 -76.667 106.5 -137.167 183.5 -181.5c77 -44.333 160.5 -66.5 250.5 -66.5c122.667 0 239 49.333 349 148c0 0 -105 106 -105 106c-76 -69.333 -157 -104 -243 -104c-99.333 0 -183.167 34.667 -251.5 104c-68.333 69.333 -102.5 154 -102.5 254c0 93.333 35.167 173.667 105.5 241c70.333 67.333 152.833 101 247.5 101c87.333 0 168.667 -34.333 244 -103c0 0 0 0 0 0" />
  </g>
</svg>