<svg height="1000px" width="1360px" xmlns="http://www.w3.org/2000/svg">
  <g>
    <path d="M105 2.5c0 0 1152 0 1152 0c28.667 0 53.333 10.333 74 31c20.667 20.667 31 45.333 31 74c0 0 0 785 0 785c0 29.333 -10.333 54.167 -31 74.5c-20.667 20.333 -45.333 30.5 -74 30.5c0 0 -1152 0 -1152 0c-28.667 0 -53.333 -10.167 -74 -30.5c-20.667 -20.333 -31 -45.167 -31 -74.5c0 0 0 -785 0 -785c0 -28.667 10.333 -53.333 31 -74c20.667 -20.667 45.333 -31 74 -31c0 0 0 0 0 0m69 157c0 0 507 423 507 423c0 0 507 -423 507 -423c0 0 -1014 0 -1014 0c0 0 0 0 0 0m-17 681c0 0 1048 0 1048 0c0 0 0 -558 0 -558c0 0 -494 412 -494 412c0 0 -61 0 -61 0c0 0 -493 -412 -493 -412c0 0 0 558 0 558c0 0 0 0 0 0" />
  </g>
</svg>