<svg height="1000" width="1000" xmlns="http://www.w3.org/2000/svg"><path d="M1000 89v824q0 36 -26 62t-62 26h-824q-36 0 -62 -26t-26 -62v-824q0 -36 26 -62t62 -26h824q36 0 62 26t26 62zm-295 216q0 -87 -59 -150t-146 -63 -146 63 -59 150 59 150 146 63 146 -63 59 -150zm22 279q0 -26 -17.5 -44.5t-42.5 -18.5q-15 0 -28 8 -70 36 -140 36 -69 0 -138 -36 -16 -7 -28 -7 -25 0 -42.5 18.5t-17.5 44.5q0 68 147 97l-117 121q-18 18 -18 44t17.5 44.5 42.5 18.5 43 -18l112 -116 112 116q18 18 43 18t42.5 -18.5 17.5 -44.5 -18 -44l-117 -121q147 -30 147 -98zm-142 -279q0 36 -24.5 62t-60.5 26 -60.5 -26 -24.5 -62 24.5 -62 60.5 -26 60.5 26 24.5 62z"/></svg>