<svg height="1000px" width="1000px" xmlns="http://www.w3.org/2000/svg">
  <g>
    <path d="M1000 88c0 0 0 824 0 824c0 24 -8.667 44.667 -26 62c-17.333 17.333 -38 26 -62 26c0 0 -824 0 -824 0c-24 0 -44.667 -8.667 -62 -26c-17.333 -17.333 -26 -38 -26 -62c0 0 0 -824 0 -824c0 -24 8.667 -44.667 26 -62c17.333 -17.333 38 -26 62 -26c0 0 824 0 824 0c24 0 44.667 8.667 62 26c17.333 17.333 26 38 26 62c0 0 0 0 0 0m-295 216c0 -58 -19.667 -108 -59 -150c-39.333 -42 -88 -63 -146 -63c-58 0 -106.667 21 -146 63c-39.333 42 -59 92 -59 150c0 58 19.667 108 59 150c39.333 42 88 63 146 63c58 0 106.667 -21 146 -63c39.333 -42 59 -92 59 -150c0 0 0 0 0 0m22 279c0 -17.333 -5.833 -32.167 -17.5 -44.5c-11.667 -12.333 -25.833 -18.5 -42.5 -18.5c-10 0 -19.333 2.667 -28 8c-46.667 24 -93.333 36 -140 36c-46 0 -92 -12 -138 -36c-10.667 -4.667 -20 -7 -28 -7c-16.667 0 -30.833 6.167 -42.5 18.5c-11.667 12.333 -17.5 27.167 -17.5 44.5c0 45.333 49 77.667 147 97c0 0 -117 121 -117 121c-12 12 -18 26.667 -18 44c0 17.333 5.833 32.167 17.5 44.5c11.667 12.333 25.833 18.5 42.5 18.5c16.667 0 31 -6 43 -18c0 0 112 -116 112 -116c0 0 112 116 112 116c12 12 26.333 18 43 18c16.667 0 30.833 -6.167 42.5 -18.5c11.667 -12.333 17.5 -27.167 17.5 -44.5c0 -17.333 -6 -32 -18 -44c0 0 -117 -121 -117 -121c98 -20 147 -52.667 147 -98c0 0 0 0 0 0m-142 -279c0 24 -8.167 44.667 -24.5 62c-16.333 17.333 -36.5 26 -60.5 26c-24 0 -44.167 -8.667 -60.5 -26c-16.333 -17.333 -24.5 -38 -24.5 -62c0 -24 8.167 -44.667 24.5 -62c16.333 -17.333 36.5 -26 60.5 -26c24 0 44.167 8.667 60.5 26c16.333 17.333 24.5 38 24.5 62c0 0 0 0 0 0" />
  </g>
</svg>