<svg height="1000px" width="1000px" xmlns="http://www.w3.org/2000/svg">
  <g>
    <path d="M500 0c90.667 0 174.333 22.333 251 67c76.667 44.667 137.333 105.333 182 182c44.667 76.667 67 160.333 67 251c0 90.667 -22.333 174.333 -67 251c-44.667 76.667 -105.333 137.333 -182 182c-76.667 44.667 -160.333 67 -251 67c-90.667 0 -174.333 -22.333 -251 -67c-76.667 -44.667 -137.333 -105.333 -182 -182c-44.667 -76.667 -67 -160.333 -67 -251c0 -90.667 22.333 -174.333 67 -251c44.667 -76.667 105.333 -137.333 182 -182c76.667 -44.667 160.333 -67 251 -67c0 0 0 0 0 0m-240 447c0 0 -54 53 -54 53c47.333 47.333 90.333 91.833 129 133.5c38.667 41.667 65.667 71.5 81 89.5c0 0 22 26 22 26c5.333 -8.667 12.667 -20.5 22 -35.5c9.333 -15 28.167 -43.5 56.5 -85.5c28.333 -42 56.167 -81.5 83.5 -118.5c27.333 -37 59 -76.833 95 -119.5c36 -42.667 69 -77.333 99 -104c-12 -23.333 -24 -35 -36 -35c-6.667 4 -17.333 11.333 -32 22c-14.667 10.667 -52.5 43.167 -113.5 97.5c-61 54.333 -131.167 121.167 -210.5 200.5c0 0 -142 -124 -142 -124" />
  </g>
</svg>