<svg height="1000px" width="1179px" xmlns="http://www.w3.org/2000/svg">
  <g>
    <path d="M1179 71c-166.667 148 -366.667 398 -600 750c0 0 -115 179 -115 179c-96 -120 -250.667 -286.667 -464 -500c0 0 107 -107 107 -107c0 0 286 250 286 250c100 -100 193 -190.5 279 -271.5c86 -81 154.5 -143.5 205.5 -187.5c51 -44 94.833 -81 131.5 -111c36.667 -30 62.333 -49.667 77 -59c0 0 21 -14 21 -14c2.667 0 6.333 0.667 11 2c4.667 1.333 13.333 7.833 26 19.5c12.667 11.667 24.333 28.167 35 49.5c0 0 0 0 0 0" />
  </g>
</svg>