<svg height="1000px" width="1360px" xmlns="http://www.w3.org/2000/svg">
  <g>
    <path d="M1360 0c0 0 0 1000 0 1000c0 0 -1360 0 -1360 0c0 0 0 -1000 0 -1000c0 0 1360 0 1360 0c0 0 0 0 0 0m-1240 880c0 0 1120 0 1120 0c0 0 0 -760 0 -760c0 0 -1120 0 -1120 0c0 0 0 760 0 760c0 0 0 0 0 0m1000 -560c0 22 -7.833 40.833 -23.5 56.5c-15.667 15.667 -34.5 23.5 -56.5 23.5c-22 0 -40.833 -7.833 -56.5 -23.5c-15.667 -15.667 -23.5 -34.5 -23.5 -56.5c0 -22 7.833 -40.833 23.5 -56.5c15.667 -15.667 34.5 -23.5 56.5 -23.5c22 0 40.833 7.833 56.5 23.5c15.667 15.667 23.5 34.5 23.5 56.5c0 0 0 0 0 0m43 473c1.333 0.667 1.667 2 1 4c-0.667 2 -2 3 -4 3c0 0 -955 0 -955 0c0 0 -1 0 -1 0c-2.667 0 -4 -1.333 -4 -4c0 0 0 -2 0 -2c12 -24 57 -117.333 135 -280c78 -162.667 126 -262.333 144 -299c0.667 -1.333 1.833 -2.167 3.5 -2.5c1.667 -0.333 2.833 0.167 3.5 1.5c0 0 311 386 311 386c0 0 152 -122 152 -122c0 0 7 0 7 0c0 0 1 2 1 2c26 33.333 59.833 85 101.5 155c41.667 70 76.5 122.667 104.5 158c0 0 0 0 0 0" />
  </g>
</svg>