<svg height="1000px" width="1000px" xmlns="http://www.w3.org/2000/svg">
  <g>
    <path d="M1000 500c0 90.667 -22.333 174.333 -67 251c-44.667 76.667 -105.333 137.333 -182 182c-76.667 44.667 -160.333 67 -251 67c-90.667 0 -174.333 -22.333 -251 -67c-76.667 -44.667 -137.333 -105.333 -182 -182c-44.667 -76.667 -67 -160.333 -67 -251c0 -90.667 22.333 -174.333 67 -251c44.667 -76.667 105.333 -137.333 182 -182c76.667 -44.667 160.333 -67 251 -67c90.667 0 174.333 22.333 251 67c76.667 44.667 137.333 105.333 182 182c44.667 76.667 67 160.333 67 251c0 0 0 0 0 0m-440 58c0 0 235 0 235 0c0 0 0 -118 0 -118c0 0 -235 0 -235 0c0 0 0 -235 0 -235c0 0 -118 0 -118 0c0 0 0 235 0 235c0 0 -236 0 -236 0c0 0 0 118 0 118c0 0 236 0 236 0c0 0 0 236 0 236c0 0 118 0 118 0c0 0 0 -236 0 -236c0 0 0 0 0 0" />
  </g>
</svg>