<svg height="1000px" width="1000px" xmlns="http://www.w3.org/2000/svg">
  <g>
    <path d="M559 265c0 0 -118 0 -118 0c0 0 0 -265 0 -265c0 0 118 0 118 0c0 0 0 265 0 265c0 0 0 0 0 0m0 735c0 0 -118 0 -118 0c0 0 0 -265 0 -265c0 0 118 0 118 0c0 0 0 265 0 265c0 0 0 0 0 0m176 -441c0 0 0 -118 0 -118c0 0 265 0 265 0c0 0 0 118 0 118c0 0 -265 0 -265 0c0 0 0 0 0 0m-735 -118c0 0 265 0 265 0c0 0 0 118 0 118c0 0 -265 0 -265 0c0 0 0 -118 0 -118c0 0 0 0 0 0m812 454c0 0 -187 -187 -187 -187c0 0 83 -83 83 -83c0 0 187 187 187 187c0 0 -83 83 -83 83m0 -790c0 0 83 83 83 83c0 0 -187 187 -187 187c0 0 -83 -83 -83 -83c0 0 187 -187 187 -187m-624 790c0 0 -83 -83 -83 -83c0 0 187 -187 187 -187c0 0 83 83 83 83c0 0 -187 187 -187 187" />
  </g>
</svg>