<svg width="1000" height="1000" xmlns="http://www.w3.org/2000/svg">
 <g>
  <title>Layer 1</title>
  <g>
   <path d="m559,1000c0,0 -118,0 -118,0c0,0 0,-265 0,-265c0,0 118,0 118,0c0,0 0,265 0,265c0,0 0,0 0,0m176,-441c0,0 0,-118 0,-118c0,0 265,0 265,0c0,0 0,118 0,118c0,0 -265,0 -265,0c0,0 0,0 0,0m-735,-118c0,0 265,0 265,0c0,0 0,118 0,118c0,0 -265,0 -265,0c0,0 0,-118 0,-118c0,0 0,0 0,0m292,-66c0,0 -187,-187 -187,-187c0,0 83,-83 83,-83c0,0 187,187 187,187c0,0 -83,83 -83,83m520,520c0,0 -187,-187 -187,-187c0,0 83,-83 83,-83c0,0 187,187 187,187c0,0 -83,83 -83,83m0,-790c0,0 83,83 83,83c0,0 -187,187 -187,187c0,0 -83,-83 -83,-83c0,0 187,-187 187,-187m-624,790c0,0 -83,-83 -83,-83c0,0 187,-187 187,-187c0,0 83,83 83,83c0,0 -187,187 -187,187"/>
  </g>
 </g>
</svg>
