<svg height="1000px" width="1185px" xmlns="http://www.w3.org/2000/svg">
  <g>
    <path d="M501 0c0 0 0 319 0 319c73.333 10 141.167 25 203.5 45c62.333 20 115.333 42.667 159 68c43.667 25.333 83.167 52.833 118.5 82.5c35.333 29.667 64 59.833 86 90.5c22 30.667 41 60.833 57 90.5c16 29.667 27.667 57.5 35 83.5c7.333 26 13.167 49 17.5 69c4.333 20 6.5 35.667 6.5 47c0 0 1 17 1 17c-4 -7.333 -10.333 -17.167 -19 -29.5c-8.667 -12.333 -31.167 -33.333 -67.5 -63c-36.333 -29.667 -77.833 -55.167 -124.5 -76.5c-46.667 -21.333 -112 -38.667 -196 -52c-51.333 -8 -105.333 -12 -162 -12c-36.667 0 -75 1.667 -115 5c0 0 0 316 0 316c0 0 -501 -499 -501 -499c0 0 501 -501 501 -501" />
  </g>
</svg>