<svg height="1000px" width="1000px" xmlns="http://www.w3.org/2000/svg">
  <g>
    <path d="M1000 500c0 90.667 -22.333 174.333 -67 251c-44.667 76.667 -105.333 137.333 -182 182c-76.667 44.667 -160.333 67 -251 67c-90.667 0 -174.333 -22.333 -251 -67c-76.667 -44.667 -137.333 -105.333 -182 -182c-44.667 -76.667 -67 -160.333 -67 -251c0 -90.667 22.333 -174.333 67 -251c44.667 -76.667 105.333 -137.333 182 -182c76.667 -44.667 160.333 -67 251 -67c90.667 0 174.333 22.333 251 67c76.667 44.667 137.333 105.333 182 182c44.667 76.667 67 160.333 67 251c0 0 0 0 0 0m-356 -82c0 0 116 102 116 102c0 0 0 -280 0 -280c0 0 -280 0 -280 0c0 0 102 116 102 116c0 0 -13 13 -13 13c0 0 -213 213 -213 213c0 0 -116 -102 -116 -102c0 0 0 280 0 280c0 0 280 0 280 0c0 0 -102 -116 -102 -116c0 0 226 -226 226 -226" />
  </g>
</svg>