<svg height="1000px" width="1000px" xmlns="http://www.w3.org/2000/svg">
  <g>
    <path d="M1000 0c0 0 0 467 0 467c0 0 -168 -161 -168 -161c0 0 -161 161 -161 161c-19.333 19.333 -42.333 29 -69 29c-26.667 0 -49.667 -9.667 -69 -29c-19.333 -19.333 -29 -42.333 -29 -69c0 -26.667 9.667 -49.667 29 -69c0 0 161 -161 161 -161c0 0 -161 -168 -161 -168c0 0 467 0 467 0c0 0 0 0 0 0m-694 832c0 0 161 168 161 168c0 0 -467 0 -467 0c0 0 0 -467 0 -467c0 0 168 161 168 161c0 0 161 -161 161 -161c19.333 -19.333 42.333 -29 69 -29c26.667 0 49.667 9.667 69 29c19.333 19.333 29 42.333 29 69c0 26.667 -9.667 49.667 -29 69c0 0 -161 161 -161 161" />
  </g>
</svg>