<svg height="1000px" width="1000px" xmlns="http://www.w3.org/2000/svg">
  <g>
    <path d="M1000 88c0 0 0 824 0 824c0 24 -8.667 44.667 -26 62c-17.333 17.333 -38 26 -62 26c0 0 -824 0 -824 0c-24 0 -44.667 -8.667 -62 -26c-17.333 -17.333 -26 -38 -26 -62c0 0 0 -824 0 -824c0 -24 8.667 -44.667 26 -62c17.333 -17.333 38 -26 62 -26c0 0 824 0 824 0c24 0 44.667 8.667 62 26c17.333 17.333 26 38 26 62c0 0 0 0 0 0m-283 765c0 0 136 0 136 0c0 -95.333 -18.667 -186.667 -56 -274c-37.333 -87.333 -87.5 -162.5 -150.5 -225.5c-63 -63 -138.167 -113.167 -225.5 -150.5c-87.333 -37.333 -178.667 -56 -274 -56c0 0 0 135 0 135c102.667 0 197.833 25.5 285.5 76.5c87.667 51 157 120.333 208 208c51 87.667 76.5 183.167 76.5 286.5c0 0 0 0 0 0m-240 0c0 0 136 0 136 0c0 -84 -20.833 -161.833 -62.5 -233.5c-41.667 -71.667 -98.333 -128.333 -170 -170c-71.667 -41.667 -149.5 -62.5 -233.5 -62.5c0 0 0 135 0 135c90.667 0 168.333 32.333 233 97c64.667 63.333 97 141.333 97 234c0 0 0 0 0 0m-153 -88c0 -24.667 -8.667 -45.667 -26 -63c-17.333 -17.333 -38.333 -26 -63 -26c-24 0 -44.667 8.667 -62 26c-17.333 17.333 -26 38.333 -26 63c0 24 8.667 44.667 26 62c17.333 17.333 38 26 62 26c24.667 0 45.667 -8.667 63 -26c17.333 -17.333 26 -38 26 -62c0 0 0 0 0 0" />
  </g>
</svg>