<svg height="1000px" width="1000px" xmlns="http://www.w3.org/2000/svg">
  <g>
    <path d="M1000 1000c0 0 -193 0 -193 0c0 -109.333 -21.333 -214 -64 -314c-42.667 -100 -100 -186 -172 -258c-72 -72 -157.833 -129.333 -257.5 -172c-99.667 -42.667 -204.167 -64 -313.5 -64c0 0 0 -192 0 -192c135.333 0 264.667 26.5 388 79.5c123.333 53 229.667 124.167 319 213.5c89.333 89.333 160.5 195.667 213.5 319c53 123.333 79.5 252.667 79.5 388c0 0 0 0 0 0m-340 0c0 0 -192 0 -192 0c0 -129.333 -45.667 -239.667 -137 -331c-91.333 -91.333 -201.667 -137 -331 -137c0 0 0 -192 0 -192c119.333 0 229.667 29.5 331 88.5c101.333 59 181.5 139.167 240.5 240.5c59 101.333 88.5 211.667 88.5 331c0 0 0 0 0 0m-410 -125c0 34.667 -12.167 64.167 -36.5 88.5c-24.333 24.333 -53.833 36.5 -88.5 36.5c-34.667 0 -64.167 -12.167 -88.5 -36.5c-24.333 -24.333 -36.5 -53.833 -36.5 -88.5c0 -34.667 12.167 -64.167 36.5 -88.5c24.333 -24.333 53.833 -36.5 88.5 -36.5c34.667 0 64.167 12.167 88.5 36.5c24.333 24.333 36.5 53.833 36.5 88.5c0 0 0 0 0 0" />
  </g>
</svg>