<svg height="1000px" width="1000px" xmlns="http://www.w3.org/2000/svg">
  <g>
    <path d="M746 640c0 0 254 255 254 255c0 0 -105 105 -105 105c0 0 -254 -254 -254 -254c-70.667 48 -148 72 -232 72c-112.667 0 -209 -40 -289 -120c-80 -80 -120 -176.333 -120 -289c0 -112.667 40 -209 120 -289c80 -80 176.333 -120 289 -120c112.667 0 209 40 289 120c80 80 120 176.333 120 289c0 84.667 -24 161.667 -72 231c0 0 0 0 0 0m-65 -231c0 -75.333 -26.5 -139.667 -79.5 -193c-53 -53.333 -117.167 -80 -192.5 -80c-75.333 0 -139.667 26.667 -193 80c-53.333 53.333 -80 117.667 -80 193c0 75.333 26.667 139.5 80 192.5c53.333 53 117.667 79.5 193 79.5c75.333 0 139.5 -26.5 192.5 -79.5c53 -53 79.5 -117.167 79.5 -192.5c0 0 0 0 0 0" />
  </g>
</svg>