<svg height="1000px" width="1000px" xmlns="http://www.w3.org/2000/svg">
  <g>
    <path d="M1000 727c0 75.333 -27.167 139.667 -81.5 193c-54.333 53.333 -119.5 80 -195.5 80c-46 0 -89.333 -10.667 -130 -32c-30.667 5.333 -60 8 -88 8c-130.667 0 -242.833 -45.833 -336.5 -137.5c-93.667 -91.667 -140.5 -202.833 -140.5 -333.5c0 -28 3.333 -59.333 10 -94c-25.333 -42.667 -38 -88.667 -38 -138c0 -75.333 27.167 -139.667 81.5 -193c54.333 -53.333 119.5 -80 195.5 -80c54 0 103 14 147 42c25.333 -4.667 52.333 -7 81 -7c86 0 165.5 20.833 238.5 62.5c73 41.667 131 98.5 174 170.5c43 72 64.5 151 64.5 237c0 37.333 -3.667 71 -11 101c19.333 38.667 29 79 29 121c0 0 0 0 0 0m-217 -102c0 -33.333 -7.333 -62.167 -22 -86.5c-14.667 -24.333 -33.833 -43.167 -57.5 -56.5c-23.667 -13.333 -49.833 -24.667 -78.5 -34c-28.667 -9.333 -57.333 -16.833 -86 -22.5c-28.667 -5.667 -54.833 -11.667 -78.5 -18c-23.667 -6.333 -42.833 -14.833 -57.5 -25.5c-14.667 -10.667 -22 -23.667 -22 -39c0 -22.667 12.167 -39.167 36.5 -49.5c24.333 -10.333 49.5 -15.5 75.5 -15.5c26.667 0 48.833 4.167 66.5 12.5c17.667 8.333 30.5 18.333 38.5 30c8 11.667 15.167 23.333 21.5 35c6.333 11.667 14.667 21.667 25 30c10.333 8.333 23.833 12.5 40.5 12.5c18.667 0 34.833 -6.333 48.5 -19c13.667 -12.667 20.5 -28 20.5 -46c0 -18 -5 -36 -15 -54c-20 -36.667 -52.167 -63.333 -96.5 -80c-44.333 -16.667 -91.167 -25 -140.5 -25c-30.667 0 -60.5 3 -89.5 9c-29 6 -57.167 15.5 -84.5 28.5c-27.333 13 -49.333 31.833 -66 56.5c-16.667 24.667 -25 53.667 -25 87c0 44 13.5 79.5 40.5 106.5c27 27 60 46 99 57c39 11 77.833 20.5 116.5 28.5c38.667 8 71.5 19.167 98.5 33.5c27 14.333 40.5 33.833 40.5 58.5c0 28 -14 48.833 -42 62.5c-28 13.667 -58 20.5 -90 20.5c-30 0 -54.667 -5 -74 -15c-19.333 -10 -33.167 -22 -41.5 -36c-8.333 -14 -15.833 -28.167 -22.5 -42.5c-6.667 -14.333 -15.333 -26.5 -26 -36.5c-10.667 -10 -24.667 -15 -42 -15c-18.667 0 -35 5.833 -49 17.5c-14 11.667 -21 26.5 -21 44.5c0 28 10.333 56.333 31 85c48 69.333 131 104 249 104c33.333 0 65.667 -3.667 97 -11c31.333 -7.333 61 -18.5 89 -33.5c28 -15 50.5 -36.167 67.5 -63.5c17 -27.333 25.5 -59 25.5 -95c0 0 0 0 0 0" />
  </g>
</svg>