<svg height="1000" width="1000" xmlns="http://www.w3.org/2000/svg"><path d="M1000 728q0 113 -81.5 193t-195.5 80q-69 0 -130 -32 -46 8 -88 8 -196 0 -336.5 -137.5t-140.5 -333.5q0 -42 10 -94 -38 -64 -38 -138 0 -113 81.5 -193t195.5 -80q81 0 147 42 38 -7 81 -7 129 0 238.5 62.5t174 170.5 64.5 237q0 56 -11 101 29 58 29 121zm-217 -102q0 -50 -22 -86.5t-57.5 -56.5 -78.5 -34 -86 -22.5 -78.5 -18 -57.5 -25.5 -22 -39q0 -34 36.5 -49.5t75.5 -15.5q40 0 66.5 12.5t38.5 30 21.5 35 25 30 40.5 12.5q28 0 48.5 -19t20.5 -46 -15 -54q-30 -55 -96.5 -80t-140.5 -25q-46 0 -89.5 9t-84.5 28.5 -66 56.5 -25 87q0 66 40.5 106.5t99 57 116.5 28.5 98.5 33.5 40.5 58.5q0 42 -42 62.5t-90 20.5q-45 0 -74 -15t-41.5 -36 -22.5 -42.5 -26 -36.5 -42 -15q-28 0 -49 17.5t-21 44.5q0 42 31 85 72 104 249 104 50 0 97 -11t89 -33.5 67.5 -63.5 25.5 -95z"/></svg>