<svg height="1000px" width="1050px" xmlns="http://www.w3.org/2000/svg">
  <g>
    <path d="M1050 385c0 10 -9.667 22.667 -29 38c0 0 -275 200 -275 200c0 0 105 323 105 323c3.333 11.333 5 21.333 5 30c0 16 -6 24 -18 24c-11.333 0 -24 -5.667 -38 -17c0 0 -275 -199 -275 -199c0 0 -275 199 -275 199c-15.333 11.333 -28.333 17 -39 17c-12 0 -18 -7.667 -18 -23c0 -7.333 2 -17.667 6 -31c0 0 105 -323 105 -323c0 0 -275 -200 -275 -200c-19.333 -14 -29 -26.333 -29 -37c0 -15.333 16.333 -23 49 -23c0 0 340 1 340 1c0 0 104 -324 104 -324c8 -26.667 18.667 -40 32 -40c12.667 0 23 13.333 31 40c0 0 106 324 106 324c0 0 339 -1 339 -1c32.667 0 49 7.333 49 22c0 0 0 0 0 0" />
  </g>
</svg>