<svg height="1000px" width="1000px" xmlns="http://www.w3.org/2000/svg">
  <g>
    <path d="M1000 135c0 0 0 270 0 270c0 0 -595 595 -595 595c0 0 -405 -405 -405 -405c0 0 595 -595 595 -595c0 0 270 0 270 0c0 0 135 135 135 135m-160 160c18.667 -18.667 28 -41.167 28 -67.5c0 -26.333 -9.333 -48.833 -28 -67.5c-18.667 -18.667 -41.167 -28 -67.5 -28c-26.333 0 -48.833 9.333 -67.5 28c-18.667 18.667 -28 41.167 -28 67.5c0 26.333 9.333 48.833 28 67.5c18.667 18.667 41.167 28 67.5 28c26.333 0 48.833 -9.333 67.5 -28c0 0 0 0 0 0" />
  </g>
</svg>