<svg height="1000px" width="1000px" xmlns="http://www.w3.org/2000/svg">
  <g>
    <path d="M1000 0c0 0 0 160 0 160c0 0 -440 0 -440 0c0 0 0 -160 0 -160c0 0 440 0 440 0c0 0 0 0 0 0m0 280c0 0 0 160 0 160c0 0 -440 0 -440 0c0 0 0 -160 0 -160c0 0 440 0 440 0c0 0 0 0 0 0m0 280c0 0 0 160 0 160c0 0 -440 0 -440 0c0 0 0 -160 0 -160c0 0 440 0 440 0c0 0 0 0 0 0m-560 -560c0 0 0 440 0 440c0 0 -440 0 -440 0c0 0 0 -440 0 -440c0 0 440 0 440 0c0 0 0 0 0 0m-320 320c0 0 200 0 200 0c0 0 0 -200 0 -200c0 0 -200 0 -200 0c0 0 0 200 0 200c0 0 0 0 0 0m880 520c0 0 0 160 0 160c0 0 -440 0 -440 0c0 0 0 -160 0 -160c0 0 440 0 440 0c0 0 0 0 0 0m-560 -280c0 0 0 440 0 440c0 0 -440 0 -440 0c0 0 0 -440 0 -440c0 0 440 0 440 0c0 0 0 0 0 0m-320 320c0 0 200 0 200 0c0 0 0 -200 0 -200c0 0 -200 0 -200 0c0 0 0 200 0 200c0 0 0 0 0 0" />
  </g>
</svg>