<svg height="1000px" width="1000px" xmlns="http://www.w3.org/2000/svg">
  <g>
    <path d="M1000 88c0 0 0 824 0 824c0 24 -8.667 44.667 -26 62c-17.333 17.333 -38 26 -62 26c0 0 -824 0 -824 0c-24 0 -44.667 -8.667 -62 -26c-17.333 -17.333 -26 -38 -26 -62c0 0 0 -824 0 -824c0 -24 8.667 -44.667 26 -62c17.333 -17.333 38 -26 62 -26c0 0 824 0 824 0c24 0 44.667 8.667 62 26c17.333 17.333 26 38 26 62c0 0 0 0 0 0m-456 364c0 0 183 0 183 0c0 0 -1 -119 -1 -119c0 0 -184 0 -184 0c0 0 2 -181 2 -181c0 0 -112 0 -112 0c-2 45.333 -14.333 84.667 -37 118c-2 3.333 -5 8.667 -9 16c-4 7.333 -7.833 13.667 -11.5 19c-3.667 5.333 -7.167 9.333 -10.5 12c-12.667 10 -38 15 -76 15c0 0 -15 0 -15 0c0 0 0 120 0 120c0 0 91 3 91 3c0 0 0 303 0 303c0 26 4.833 47.667 14.5 65c9.667 17.333 23.333 29.833 41 37.5c17.667 7.667 34.333 12.667 50 15c15.667 2.333 34.167 3.5 55.5 3.5c0 0 45 0 45 0c33.333 0 60.333 -1.167 81 -3.5c20.667 -2.333 34.833 -4.833 42.5 -7.5c7.667 -2.667 16.5 -6.667 26.5 -12c0 0 0 -128 0 -128c-36 23.333 -71 35 -105 35c-18 0 -34.333 -4.333 -49 -13c-14.667 -8.667 -22 -17 -22 -25c0 0 0 -273 0 -273c0 0 0 0 0 0" />
  </g>
</svg>