<svg height="1000" width="1003" xmlns="http://www.w3.org/2000/svg"><path d="M1003 501q-41 46 -114 46h-6q-37 152 -177.5 244t-304.5 92q-121 0 -225.5 -53t-175.5 -151q75 72 181 72 113 0 191 -83 -6 1 -12 1l-36 -8q-24 -12 -24 -35 0 -27 41 -45 -10 1 -19 1 -29 0 -54 -12 -33 -16 -51 -51 22 -25 69 -28 -98 -24 -112 -102 27 -8 53 -8h8q-37 -20 -62 -51.5t-24 -69.5l1 -8q155 59 257 116 30 17 76 63 32 -87 67.5 -150.5t89.5 -98.5q-1 16 -15 31 33 -32 78 -38 -3 23 -53 41 7 -2 25.5 -9.5t33 -11.5 25.5 -4q15 0 15 11 0 8 -16.5 16t-42.5 15.5 -28 8.5q10 -1 19 -1 69 0 123 52 60 60 76 143 18 6 36 6 50 0 83 -19 -13 30 -43.5 47t-66.5 19q34 15 83 15 16 0 31 -3z"/></svg>