<svg height="1000px" width="1003px" xmlns="http://www.w3.org/2000/svg">
  <g>
    <path d="M1003 472c-27.333 30.667 -65.333 46 -114 46c0 0 -6 0 -6 0c-24.667 101.333 -83.833 182.667 -177.5 244c-93.667 61.333 -195.167 92 -304.5 92c-80.667 0 -155.833 -17.667 -225.5 -53c-69.667 -35.333 -128.167 -85.667 -175.5 -151c50 48 110.333 72 181 72c75.333 0 139 -27.667 191 -83c-4 0.667 -8 1 -12 1c0 0 -36 -8 -36 -8c-16 -8 -24 -19.667 -24 -35c0 -18 13.667 -33 41 -45c-6.667 0.667 -13 1 -19 1c-19.333 0 -37.333 -4 -54 -12c-22 -10.667 -39 -27.667 -51 -51c14.667 -16.667 37.667 -26 69 -28c-65.333 -16 -102.667 -50 -112 -102c18 -5.333 35.667 -8 53 -8c0 0 8 0 8 0c-24.667 -13.333 -45.333 -30.5 -62 -51.5c-16.667 -21 -24.667 -44.167 -24 -69.5c0 0 1 -8 1 -8c103.333 39.333 189 78 257 116c20 11.333 45.333 32.333 76 63c21.333 -58 43.833 -108.167 67.5 -150.5c23.667 -42.333 53.5 -75.167 89.5 -98.5c-0.667 10.667 -5.667 21 -15 31c22 -21.333 48 -34 78 -38c-2 15.333 -19.667 29 -53 41c4.667 -1.333 13.167 -4.5 25.5 -9.5c12.333 -5 23.333 -8.833 33 -11.5c9.667 -2.667 18.167 -4 25.5 -4c10 0 15 3.667 15 11c0 5.333 -5.5 10.667 -16.5 16c-11 5.333 -25.167 10.5 -42.5 15.5c-17.333 5 -26.667 7.833 -28 8.5c6.667 -0.667 13 -1 19 -1c46 0 87 17.333 123 52c40 40 65.333 87.667 76 143c12 4 24 6 36 6c33.333 0 61 -6.333 83 -19c-8.667 20 -23.167 35.667 -43.5 47c-20.333 11.333 -42.5 17.667 -66.5 19c22.667 10 50.333 15 83 15c10.667 0 21 -1 31 -3c0 0 0 0 0 0" />
  </g>
</svg>