<svg height="1000px" width="1070px" xmlns="http://www.w3.org/2000/svg">
  <g>
    <path d="M1070 937c0 14 -0.667 35 -2 63c0 0 -1067 0 -1067 0c0 -6.667 -0.167 -17 -0.5 -31c-0.333 -14 -0.5 -24.667 -0.5 -32c0 -20 0.333 -32.333 1 -37c8 -32.667 29.333 -60.833 64 -84.5c34.667 -23.667 71.833 -41.333 111.5 -53c39.667 -11.667 81.5 -27.333 125.5 -47c44 -19.667 76.333 -41.5 97 -65.5c11.333 -14.667 17 -27.333 17 -38c0 -14.667 -3.667 -39 -11 -73c-2.667 -14 -6.167 -26.167 -10.5 -36.5c-4.333 -10.333 -9.667 -21.333 -16 -33c-6.333 -11.667 -11.5 -22.167 -15.5 -31.5c-10 -23.333 -21 -67.333 -33 -132c-4 -25.333 -6 -50.333 -6 -75c0 -70 17.833 -126 53.5 -168c35.667 -42 88.167 -63 157.5 -63c69.333 0 121.833 21 157.5 63c35.667 42 53.5 98 53.5 168c0 20.667 -2.333 45.667 -7 75c-9.333 59.333 -20 103.333 -32 132c-4 9.333 -9.167 19.833 -15.5 31.5c-6.333 11.667 -11.667 22.667 -16 33c-4.333 10.333 -7.833 22.5 -10.5 36.5c-7.333 34 -11 58.333 -11 73c0 12 5.667 24.667 17 38c20.667 24 53 45.833 97 65.5c44 19.667 85.667 35.333 125 47c39.333 11.667 76.333 29.333 111 53c34.667 23.667 56 51.833 64 84.5c1.333 5.333 2 17.667 2 37c0 0 0 0 0 0" />
  </g>
</svg>