<svg height="1000px" width="1360px" xmlns="http://www.w3.org/2000/svg">
  <g>
    <path d="M1360 0c0 0 0 1000 0 1000c0 0 -1360 0 -1360 0c0 0 0 -1000 0 -1000c0 0 1360 0 1360 0c0 0 0 0 0 0m-200 160c0 0 120 0 120 0c0 0 0 -80 0 -80c0 0 -120 0 -120 0c0 0 0 80 0 80c0 0 0 0 0 0m-200 0c0 0 120 0 120 0c0 0 0 -80 0 -80c0 0 -120 0 -120 0c0 0 0 80 0 80c0 0 0 0 0 0m-240 0c0 0 120 0 120 0c0 0 0 -80 0 -80c0 0 -120 0 -120 0c0 0 0 80 0 80c0 0 0 0 0 0m240 600c0 0 320 0 320 0c0 0 0 -520 0 -520c0 0 -320 0 -320 0c0 0 0 520 0 520c0 0 0 0 0 0m-440 -600c0 0 120 0 120 0c0 0 0 -80 0 -80c0 0 -120 0 -120 0c0 0 0 80 0 80c0 0 0 0 0 0m640 760c0 0 120 0 120 0c0 0 0 -80 0 -80c0 0 -120 0 -120 0c0 0 0 80 0 80c0 0 0 0 0 0m-880 -760c0 0 120 0 120 0c0 0 0 -80 0 -80c0 0 -120 0 -120 0c0 0 0 80 0 80c0 0 0 0 0 0m240 600c0 0 320 0 320 0c0 0 0 -520 0 -520c0 0 -320 0 -320 0c0 0 0 520 0 520c0 0 0 0 0 0m440 160c0 0 120 0 120 0c0 0 0 -80 0 -80c0 0 -120 0 -120 0c0 0 0 80 0 80c0 0 0 0 0 0m-880 -760c0 0 120 0 120 0c0 0 0 -80 0 -80c0 0 -120 0 -120 0c0 0 0 80 0 80c0 0 0 0 0 0m640 760c0 0 120 0 120 0c0 0 0 -80 0 -80c0 0 -120 0 -120 0c0 0 0 80 0 80c0 0 0 0 0 0m-640 -160c0 0 320 0 320 0c0 0 0 -520 0 -520c0 0 -320 0 -320 0c0 0 0 520 0 520c0 0 0 0 0 0m440 160c0 0 120 0 120 0c0 0 0 -80 0 -80c0 0 -120 0 -120 0c0 0 0 80 0 80c0 0 0 0 0 0m-240 0c0 0 120 0 120 0c0 0 0 -80 0 -80c0 0 -120 0 -120 0c0 0 0 80 0 80c0 0 0 0 0 0m-200 0c0 0 120 0 120 0c0 0 0 -80 0 -80c0 0 -120 0 -120 0c0 0 0 80 0 80c0 0 0 0 0 0" />
  </g>
</svg>