<svg height="1000" width="1360" xmlns="http://www.w3.org/2000/svg"><path d="M1360 1v1000h-1360v-1000h1360zm-200 160h120v-80h-120v80zm-200 0h120v-80h-120v80zm-240 0h120v-80h-120v80zm240 600h320v-520h-320v520zm-440 -600h120v-80h-120v80zm640 760h120v-80h-120v80zm-880 -760h120v-80h-120v80zm240 600h320v-520h-320v520zm440 160h120v-80h-120v80zm-880 -760h120v-80h-120v80zm640 760h120v-80h-120v80zm-640 -160h320v-520h-320v520zm440 160h120v-80h-120v80zm-240 0h120v-80h-120v80zm-200 0h120v-80h-120v80z"/></svg>