<svg height="1000" width="1000" xmlns="http://www.w3.org/2000/svg"><path d="M1000 89v824q0 36 -26 62t-62 26h-824q-36 0 -62 -26t-26 -62v-824q0 -36 26 -62t62 -26h824q36 0 62 26t26 62zm-120 165q0 -93 -112 -93 -74 0 -139 53t-89 126q12 -2 23 -2 8 0 15 1 18 2 32 7t22 19.5 8 38.5q0 43 -38 119t-75 76q-19 0 -36 -19 -24 -25 -38 -94.5t-20 -134.5 -31 -117 -70 -52q-37 0 -80 26t-104.5 80.5 -67.5 58.5v5q5 5 10.5 14.5t12 14 18.5 4.5q11 0 33 -7t34 -7q26 0 43 40 5 13 12.5 37.5t10.5 32.5q14 40 37 130l6.5 26 8 32t9.5 32.5 12.5 35 14 31.5 17.5 29.5 20.5 22 25 16.5 28.5 5q67 0 145 -65t138.5 -156 105 -182.5 55.5 -149.5q3 -18 3 -34z"/></svg>