<svg height="1000px" width="1000px" xmlns="http://www.w3.org/2000/svg">
  <g>
    <path d="M1000 88c0 0 0 824 0 824c0 24 -8.667 44.667 -26 62c-17.333 17.333 -38 26 -62 26c0 0 -824 0 -824 0c-24 0 -44.667 -8.667 -62 -26c-17.333 -17.333 -26 -38 -26 -62c0 0 0 -824 0 -824c0 -24 8.667 -44.667 26 -62c17.333 -17.333 38 -26 62 -26c0 0 824 0 824 0c24 0 44.667 8.667 62 26c17.333 17.333 26 38 26 62c0 0 0 0 0 0m-120 165c0 -62 -37.333 -93 -112 -93c-49.333 0 -95.667 17.667 -139 53c-43.333 35.333 -73 77.333 -89 126c8 -1.333 15.667 -2 23 -2c5.333 0 10.333 0.333 15 1c12 1.333 22.667 3.667 32 7c9.333 3.333 16.667 9.833 22 19.5c5.333 9.667 8 22.5 8 38.5c0 28.667 -12.667 68.333 -38 119c-25.333 50.667 -50.333 76 -75 76c-12.667 0 -24.667 -6.333 -36 -19c-16 -16.667 -28.667 -48.167 -38 -94.5c-9.333 -46.333 -16 -91.167 -20 -134.5c-4 -43.333 -14.333 -82.333 -31 -117c-16.667 -34.667 -40 -52 -70 -52c-24.667 0 -51.333 8.667 -80 26c-28.667 17.333 -63.5 44.167 -104.5 80.5c-41 36.333 -63.5 55.833 -67.5 58.5c0 0 0 5 0 5c3.333 3.333 6.833 8.167 10.5 14.5c3.667 6.333 7.667 11 12 14c4.333 3 10.5 4.5 18.5 4.5c7.333 0 18.333 -2.333 33 -7c14.667 -4.667 26 -7 34 -7c17.333 0 31.667 13.333 43 40c3.333 8.667 7.5 21.167 12.5 37.5c5 16.333 8.5 27.167 10.5 32.5c9.333 26.667 21.667 70 37 130c0 0 6.5 26 6.5 26c0 0 8 32 8 32c0 0 3.167 10.833 9.5 32.5c6.333 21.667 10.5 33.333 12.5 35c2 1.667 6.667 12.167 14 31.5c7.333 19.333 13.167 29.167 17.5 29.5c4.333 0.333 11.167 7.667 20.5 22c9.333 14.333 17.667 19.833 25 16.5c7.333 -3.333 16.833 -1.667 28.5 5c44.667 0 93 -21.667 145 -65c52 -43.333 98.167 -95.333 138.5 -156c40.333 -60.667 75.333 -121.5 105 -182.5c29.667 -61 48.167 -110.833 55.5 -149.5c2 -12 3 -23.333 3 -34c0 0 0 0 0 0" />
  </g>
</svg>