<svg height="1000px" width="1000px" xmlns="http://www.w3.org/2000/svg">
  <g>
    <path d="M1000 88c0 0 0 824 0 824c0 24 -8.667 44.667 -26 62c-17.333 17.333 -38 26 -62 26c0 0 -824 0 -824 0c-24 0 -44.667 -8.667 -62 -26c-17.333 -17.333 -26 -38 -26 -62c0 0 0 -824 0 -824c0 -24 8.667 -44.667 26 -62c17.333 -17.333 38 -26 62 -26c0 0 824 0 824 0c24 0 44.667 8.667 62 26c17.333 17.333 26 38 26 62c0 0 0 0 0 0m-240 528c0 -38.667 -10.667 -70.5 -32 -95.5c-21.333 -25 -51.667 -41.5 -91 -49.5c0 0 0 -3 0 -3c26 -10.667 46.333 -27.667 61 -51c14.667 -23.333 22 -49.333 22 -78c0 -30.667 -6.5 -55.833 -19.5 -75.5c-13 -19.667 -31.5 -33.833 -55.5 -42.5c-24 -8.667 -46.833 -14.333 -68.5 -17c-21.667 -2.667 -47.5 -4 -77.5 -4c0 0 -219 0 -219 0c0 0 0 600 0 600c0 0 240 0 240 0c31.333 0 60.667 -3.167 88 -9.5c27.333 -6.333 52.667 -16.167 76 -29.5c23.333 -13.333 41.833 -32.5 55.5 -57.5c13.667 -25 20.5 -54.167 20.5 -87.5c0 0 0 0 0 0m-193 -246c0 13.333 -2.333 24.333 -7 33c-4.667 8.667 -9.833 15.333 -15.5 20c-5.667 4.667 -14.333 8 -26 10c-11.667 2 -20.833 3.167 -27.5 3.5c-6.667 0.333 -17 0.5 -31 0.5c0 0 -30 0 -30 0c0 0 0 -127 0 -127c0 0 39 0 39 0c12 0 21.167 0.167 27.5 0.5c6.333 0.333 14.833 1.5 25.5 3.5c10.667 2 18.667 5 24 9c5.333 4 10.167 10 14.5 18c4.333 8 6.5 17.667 6.5 29c0 0 0 0 0 0m38 243c0 8 -1 15.5 -3 22.5c-2 7 -4.333 13 -7 18c-2.667 5 -6.833 9.5 -12.5 13.5c-5.667 4 -10.5 7.333 -14.5 10c-4 2.667 -10 4.833 -18 6.5c-8 1.667 -14.167 3 -18.5 4c-4.333 1 -11.333 1.667 -21 2c-9.667 0.333 -16.333 0.5 -20 0.5c0 0 -20.5 0 -20.5 0c0 0 -18 0 -18 0c0 0 -22 0 -22 0c0 0 0 -150 0 -150c0 0 51 0 51 0c0 0 25.5 0 25.5 0c0 0 7.667 0.333 23 1c15.333 0.667 23.5 1.833 24.5 3.5c1 1.667 7.333 4.333 19 8c11.667 3.667 17.667 8 18 13c0.333 5 3.5 11.5 9.5 19.5c6 8 7.5 17.333 4.5 28c0 0 0 0 0 0" />
  </g>
</svg>