<svg height="1000" width="1000" xmlns="http://www.w3.org/2000/svg"><path d="M1000 89v824q0 36 -26 62t-62 26h-824q-36 0 -62 -26t-26 -62v-824q0 -36 26 -62t62 -26h824q36 0 62 26t26 62zm-240 528q0 -58 -32 -95.5t-91 -49.5v-3q39 -16 61 -51t22 -78q0 -46 -19.5 -75.5t-55.5 -42.5 -68.5 -17 -77.5 -4h-219v600h240q47 0 88 -9.5t76 -29.5 55.5 -57.5 20.5 -87.5zm-193 -246q0 20 -7 33t-15.5 20 -26 10 -27.5 3.5 -31 .5h-30v-127h39q18 0 27.5 .5t25.5 3.5 24 9 14.5 18 6.5 29zm38 243q0 12 -3 22.5t-7 18 -12.5 13.5 -14.5 10 -18 6.5 -18.5 4 -21 2 -20 .5h-60.5v-150h76.5t23 1 24.5 3.5 19 8 18 13 9.5 19.5 4.5 28z"/></svg>