<svg height="1000px" width="852px" xmlns="http://www.w3.org/2000/svg">
  <g>
    <path d="M733 111c0 0 0 313 0 313c0 0 -64 0 -64 0c0 0 0 -35 0 -35c-24.667 26 -49.333 39 -74 39c-30 0 -45 -18.667 -45 -56c0 0 0 -261 0 -261c0 0 64 0 64 0c0 0 0 240 0 240c0 14 5.667 21 17 21c11.333 0 24 -8 38 -24c0 0 0 -237 0 -237c0 0 64 0 64 0c0 0 0 0 0 0m-237 73c0 0 0 162 0 162c0 28 -8.333 49.333 -25 64c-16.667 14.667 -39.333 22 -68 22c-27.333 0 -49.5 -7.833 -66.5 -23.5c-17 -15.667 -25.5 -36.833 -25.5 -63.5c0 0 0 -162 0 -162c0 -26 9.167 -45.833 27.5 -59.5c18.333 -13.667 40.833 -20.5 67.5 -20.5c25.333 0 46.667 7.333 64 22c17.333 14.667 26 34.333 26 59c0 0 0 0 0 0m-65 167c0 0 0 -171 0 -171c0 -6.667 -3 -12.167 -9 -16.5c-6 -4.333 -12.333 -6.5 -19 -6.5c-6.667 0 -12.667 2.167 -18 6.5c-5.333 4.333 -8 9.833 -8 16.5c0 0 0 171 0 171c0 17.333 8.667 26 26 26c18.667 0 28 -8.667 28 -26c0 0 0 0 0 0m-190 -351c0 0 73 0 73 0c0 0 -55 165 -55 165c-2.667 8 -6 17.167 -10 27.5c-4 10.333 -7.5 19.667 -10.5 28c-3 8.333 -5.5 17.5 -7.5 27.5c0 0 0 176 0 176c0 0 -72 0 -72 0c0 0 0 -168 0 -168c-1.333 -8 -11 -36.333 -29 -85c0 0 -57 -171 -57 -171c0 0 73 0 73 0c0 0 46 169 46 169c0 0 5 0 5 0c0 0 44 -169 44 -169m611 739c0 32.667 -2 81 -6 145c-2.667 33.333 -15.5 59.833 -38.5 79.5c-23 19.667 -51.167 30.167 -84.5 31.5c-66 3.333 -165 5 -297 5c-132.667 0 -231.667 -1.667 -297 -5c-33.333 -1.333 -61.5 -11.833 -84.5 -31.5c-23 -19.667 -35.833 -46.167 -38.5 -79.5c-4 -64 -6 -112.333 -6 -145c0 -32.667 2 -81 6 -145c2.667 -33.333 15.5 -59.833 38.5 -79.5c23 -19.667 51.167 -30.167 84.5 -31.5c65.333 -3.333 164.333 -5 297 -5c132.667 0 231.667 1.667 297 5c33.333 1.333 61.5 11.833 84.5 31.5c23 19.667 35.833 46.167 38.5 79.5c4 64 6 112.333 6 145c0 0 0 0 0 0m-71 91c0 0 0 -19 0 -19c0 0 -53 0 -53 0c0 1.333 0.167 5.667 0.5 13c0.333 7.333 0.333 12.5 0 15.5c-0.333 3 -1.167 6.833 -2.5 11.5c-1.333 4.667 -3.667 8 -7 10c-3.333 2 -8 3 -14 3c-6.667 0 -11.833 -2 -15.5 -6c-3.667 -4 -5.667 -8 -6 -12c-0.333 -4 -0.5 -9.667 -0.5 -17c0 0 0 -48 0 -48c0 0 98 0 98 0c0 0 0 -64 0 -64c0 -23.333 -6.333 -41.667 -19 -55c-12.667 -13.333 -30.667 -20 -54 -20c-22.667 0 -41.5 6.833 -56.5 20.5c-15 13.667 -22.5 31.833 -22.5 54.5c0 0 0 113 0 113c0 24 6.5 43.167 19.5 57.5c13 14.333 31.5 21.5 55.5 21.5c51.333 0 77 -26.333 77 -79c0 0 0 0 0 0m-191 19c0 0 0 -140 0 -140c0 -42 -16.667 -63 -50 -63c-16.667 0 -32 7.667 -46 23c0 0 0 -110 0 -110c0 0 -52 0 -52 0c0 0 0 343 0 343c0 0 52 0 52 0c0 0 0 -20 0 -20c14.667 15.333 31 23 49 23c31.333 0 47 -18.667 47 -56c0 0 0 0 0 0m-250 53c0 0 51 0 51 0c0 0 0 -253 0 -253c0 0 -51 0 -51 0c0 0 0 192 0 192c-11.333 12.667 -21.667 19 -31 19c-8.667 0 -13 -5.667 -13 -17c0 0 0 -194 0 -194c0 0 -52 0 -52 0c0 0 0 213 0 213c0 29.333 12 44 36 44c20 0 40 -10.667 60 -32c0 0 0 28 0 28c0 0 0 0 0 0m-156 -293c0 0 61 0 61 0c0 0 0 -50 0 -50c0 0 -179 0 -179 0c0 0 0 50 0 50c0 0 60 0 60 0c0 0 0 293 0 293c0 0 58 0 58 0c0 0 0 -293 0 -293c0 0 0 0 0 0m544 105c0 0 0 28 0 28c0 0 -45 0 -45 0c0 0 0 -28 0 -28c0 -18 7.667 -27 23 -27c14.667 0 22 9 22 27c0 0 0 0 0 0m-191 -3c0 0 0 133 0 133c0 14 -6 21 -18 21c-9.333 0 -17.667 -3.667 -25 -11c0 0 0 -158 0 -158c6.667 -6.667 14 -10 22 -10c14 0 21 8.333 21 25c0 0 0 0 0 0" />
  </g>
</svg>