<svg height="1000" width="1000" xmlns="http://www.w3.org/2000/svg"><path d="M807 111v313h-64v-35q-37 39 -74 39 -45 0 -45 -56v-261h64v240q0 21 17 21t38 -24v-237h64zm-237 73v162q0 42 -25 64t-68 22q-41 0 -66.5 -23.5t-25.5 -63.5v-162q0 -39 27.5 -59.5t67.5 -20.5q38 0 64 22t26 59zm-65 167v-171q0 -10 -9 -16.5t-19 -6.5 -18 6.5 -8 16.5v171q0 26 26 26 28 0 28 -26zm-190 -351h73l-55 165q-4 12 -10 27.5t-10.5 28 -7.5 27.5v176h-72v-168q-2 -12 -29 -85l-57 -171h73l46 169h5zm611 739q0 49 -6 145 -4 50 -38.5 79.5t-84.5 31.5q-99 5 -297 5 -199 0 -297 -5 -50 -2 -84.5 -31.5t-38.5 -79.5q-6 -96 -6 -145t6 -145q4 -50 38.5 -79.5t84.5 -31.5q98 -5 297 -5t297 5q50 2 84.5 31.5t38.5 79.5q6 96 6 145zm-71 91v-19h-53q0 2 .5 13t0 15.5 -2.5 11.5 -7 10 -14 3q-10 0 -15.5 -6t-6 -12 -.5 -17v-48h98v-64q0 -35 -19 -55t-54 -20q-34 0 -56.5 20.5t-22.5 54.5v113q0 36 19.5 57.5t55.5 21.5q77 0 77 -79zm-191 19v-140q0 -63 -50 -63 -25 0 -46 23v-110h-52v343h52v-20q22 23 49 23 47 0 47 -56zm-250 53h51v-253h-51v192q-17 19 -31 19 -13 0 -13 -17v-194h-52v213q0 44 36 44 30 0 60 -32v28zm-156 -293h61v-50h-179v50h60v293h58v-293zm544 105v28h-45v-28q0 -27 23 -27 22 0 22 27zm-191 -3v133q0 21 -18 21 -14 0 -25 -11v-158q10 -10 22 -10 21 0 21 25z"/></svg>